<?xml version="1.0" encoding="UTF-8" standalone="no"?>
<svg
   width="1129"
   height="663"
   viewBox="0 0 1129 663"
   version="1.1"
   id="svg5985"
   sodipodi:docname="undraw_docusaurus_tree.svg"
   inkscape:version="1.2.2 (b0a8486, 2022-12-01)"
   xmlns:inkscape="http://www.inkscape.org/namespaces/inkscape"
   xmlns:sodipodi="http://sodipodi.sourceforge.net/DTD/sodipodi-0.dtd"
   xmlns="http://www.w3.org/2000/svg"
   xmlns:svg="http://www.w3.org/2000/svg">
  <defs
     id="defs5989" />
  <sodipodi:namedview
     id="namedview5987"
     pagecolor="#ffffff"
     bordercolor="#000000"
     borderopacity="0.25"
     inkscape:showpageshadow="2"
     inkscape:pageopacity="0.0"
     inkscape:pagecheckerboard="0"
     inkscape:deskcolor="#d1d1d1"
     showgrid="false"
     inkscape:zoom="0.35595777"
     inkscape:cx="480.39407"
     inkscape:cy="331.5"
     inkscape:window-width="1309"
     inkscape:window-height="456"
     inkscape:window-x="287"
     inkscape:window-y="63"
     inkscape:window-maximized="0"
     inkscape:current-layer="svg5985" />
  <title
     id="title5909">Focus on What Matters</title>
  <circle
     cx="321"
     cy="321"
     r="321"
     fill="#f2f2f2"
     id="circle5911" />
  <ellipse
     cx="559"
     cy="635.49998"
     rx="514"
     ry="27.50002"
     fill="#3f3d56"
     id="ellipse5913" />
  <ellipse
     cx="558"
     cy="627"
     rx="460"
     ry="22"
     opacity="0.2"
     id="ellipse5915" />
  <rect
     x="131"
     y="152.5"
     width="840"
     height="50"
     fill="#3f3d56"
     id="rect5917" />
  <path
     d="M166.5,727.3299A21.67009,21.67009,0,0,0,188.1701,749H984.8299A21.67009,21.67009,0,0,0,1006.5,727.3299V296h-840Z"
     transform="translate(-35.5 -118.5)"
     fill="#3f3d56"
     id="path5919" />
  <path
     d="M984.8299,236H188.1701A21.67009,21.67009,0,0,0,166.5,257.6701V296h840V257.6701A21.67009,21.67009,0,0,0,984.8299,236Z"
     transform="translate(-35.5 -118.5)"
     fill="#3f3d56"
     id="path5921" />
  <path
     d="M984.8299,236H188.1701A21.67009,21.67009,0,0,0,166.5,257.6701V296h840V257.6701A21.67009,21.67009,0,0,0,984.8299,236Z"
     transform="translate(-35.5 -118.5)"
     opacity="0.2"
     id="path5923" />
  <circle
     cx="181"
     cy="147.5"
     r="13"
     fill="#3f3d56"
     id="circle5925" />
  <circle
     cx="217"
     cy="147.5"
     r="13"
     fill="#3f3d56"
     id="circle5927" />
  <circle
     cx="253"
     cy="147.5"
     r="13"
     fill="#3f3d56"
     id="circle5929" />
  <rect
     x="168"
     y="213.5"
     width="337"
     height="386"
     rx="5.33505"
     fill="#606060"
     id="rect5931" />
  <rect
     x="603"
     y="272.5"
     width="284"
     height="22"
     rx="5.47638"
     fill="#2e8555"
     id="rect5933" />
  <rect
     x="537"
     y="352.5"
     width="416"
     height="15"
     rx="5.47638"
     fill="#2e8555"
     id="rect5935" />
  <rect
     x="537"
     y="396.5"
     width="416"
     height="15"
     rx="5.47638"
     fill="#2e8555"
     id="rect5937" />
  <rect
     x="537"
     y="440.5"
     width="416"
     height="15"
     rx="5.47638"
     fill="#2e8555"
     id="rect5939" />
  <rect
     x="537"
     y="484.5"
     width="416"
     height="15"
     rx="5.47638"
     fill="#2e8555"
     id="rect5941" />
  <rect
     x="865"
     y="552.5"
     width="88"
     height="26"
     rx="7.02756"
     fill="#3ecc5f"
     id="rect5943" />
  <path
     d="M1088.60287,624.61594a30.11371,30.11371,0,0,0,3.98291-15.266c0-13.79652-8.54358-24.98081-19.08256-24.98081s-19.08256,11.18429-19.08256,24.98081a30.11411,30.11411,0,0,0,3.98291,15.266,31.248,31.248,0,0,0,0,30.53213,31.248,31.248,0,0,0,0,30.53208,31.248,31.248,0,0,0,0,30.53208,30.11408,30.11408,0,0,0-3.98291,15.266c0,13.79652,8.54353,24.98081,19.08256,24.98081s19.08256-11.18429,19.08256-24.98081a30.11368,30.11368,0,0,0-3.98291-15.266,31.248,31.248,0,0,0,0-30.53208,31.248,31.248,0,0,0,0-30.53208,31.248,31.248,0,0,0,0-30.53213Z"
     transform="translate(-35.5 -118.5)"
     fill="#3f3d56"
     id="path5945" />
  <ellipse
     cx="1038.00321"
     cy="460.31783"
     rx="19.08256"
     ry="24.9808"
     fill="#3f3d56"
     id="ellipse5947" />
  <ellipse
     cx="1038.00321"
     cy="429.78574"
     rx="19.08256"
     ry="24.9808"
     fill="#3f3d56"
     id="ellipse5949" />
  <path
     d="M1144.93871,339.34489a91.61081,91.61081,0,0,0,7.10658-10.46092l-50.141-8.23491,54.22885.4033a91.566,91.566,0,0,0,1.74556-72.42605l-72.75449,37.74139,67.09658-49.32086a91.41255,91.41255,0,1,0-150.971,102.29805,91.45842,91.45842,0,0,0-10.42451,16.66946l65.0866,33.81447-69.40046-23.292a91.46011,91.46011,0,0,0,14.73837,85.83669,91.40575,91.40575,0,1,0,143.68892,0,91.41808,91.41808,0,0,0,0-113.02862Z"
     transform="translate(-35.5 -118.5)"
     fill="#3ecc5f"
     fill-rule="evenodd"
     id="path5951" />
  <path
     d="M981.6885,395.8592a91.01343,91.01343,0,0,0,19.56129,56.51431,91.40575,91.40575,0,1,0,143.68892,0C1157.18982,436.82067,981.6885,385.60008,981.6885,395.8592Z"
     transform="translate(-35.5 -118.5)"
     opacity="0.1"
     id="path5953" />
  <path
     d="M365.62,461.43628H477.094v45.12043H365.62Z"
     transform="translate(-35.5 -118.5)"
     fill="#fff"
     fill-rule="evenodd"
     id="path5955" />
  <path
     d="m 264.76252,608.74122 a 26.50931,26.50931 0 0 1 -22.96231,-13.27072 26.50976,26.50976 0 0 0 22.96231,39.81215 H 291.304 v -26.54143 z"
     transform="translate(-35.5,-118.5)"
     fill="#3ecc5f"
     fill-rule="evenodd"
     id="path5957"
     style="display:none" />
  <path
     d="m 384.17242,468.57061 92.92155,-5.80726 V 449.49263 A 26.54091,26.54091 0 0 0 450.55254,422.9512 H 331.1161 l -3.31768,-5.74622 a 3.83043,3.83043 0 0 0 -6.63536,0 l -3.31768,5.74622 -3.31767,-5.74622 a 3.83043,3.83043 0 0 0 -6.63536,0 l -3.31768,5.74622 -3.31767,-5.7462 a 3.83043,3.83043 0 0 0 -6.63536,0 l -3.31764,5.7462 c -0.0292,0 -0.0557,0.004 -0.0862,0.004 l -5.49674,-5.49541 a 3.8293,3.8293 0 0 0 -6.4071,1.71723 l -1.81676,6.77338 -6.89015,-1.8473 a 3.82993,3.82993 0 0 0 -4.6912,4.69253 l 1.84463,6.89148 -6.77072,1.81411 a 3.8315,3.8315 0 0 0 -1.71988,6.40975 l 5.49673,5.49673 c 0,0.0279 -0.004,0.0557 -0.004,0.0849 l -5.74622,3.31768 a 3.83043,3.83043 0 0 0 0,6.63536 l 5.74621,3.31768 -5.74625,3.31765 a 3.83043,3.83043 0 0 0 0,6.63536 l 5.74622,3.31768 -5.74622,3.31767 a 3.83043,3.83043 0 0 0 0,6.63536 l 5.74622,3.31768 -5.74622,3.31768 a 3.83043,3.83043 0 0 0 0,6.63536 l 5.74622,3.31768 -5.74622,3.31767 a 3.83043,3.83043 0 0 0 0,6.63536 l 5.74622,3.31768 -5.74622,3.31768 a 3.83043,3.83043 0 0 0 0,6.63536 l 5.74622,3.31768 -5.74622,3.31768 a 3.83042,3.83042 0 0 0 0,6.63535 l 5.74622,3.31768 -5.74622,3.31768 a 3.83043,3.83043 0 0 0 0,6.63536 l 5.74622,3.31768 -5.74622,3.31767 a 3.83042,3.83042 0 0 0 0,6.63535 l 5.74622,3.31768 -5.74622,3.31768 a 3.83043,3.83043 0 0 0 0,6.63536 l 5.74622,3.31768 -5.74622,3.31768 a 3.83042,3.83042 0 0 0 0,6.63535 l 5.74622,3.31768 -5.74622,3.31768 a 3.83043,3.83043 0 0 0 0,6.63536 l 5.74622,3.31768 a 26.54091,26.54091 0 0 0 26.54143,26.5415 H 450.55254 A 26.5409,26.5409 0 0 0 477.094,608.74122 V 502.5755 l -92.92155,-5.80727 a 14.12639,14.12639 0 0 1 0,-28.19762"
     transform="translate(-35.5,-118.5)"
     fill="#3ecc5f"
     fill-rule="evenodd"
     id="path5959"
     style="display:none" />
  <path
     d="m 424.01111,635.28265 h 39.81214 v -53.08286 h -39.81214 z"
     transform="translate(-35.5,-118.5)"
     fill="#3ecc5f"
     fill-rule="evenodd"
     id="path5961"
     style="display:none" />
  <path
     d="m 490.36468,602.10586 a 6.60242,6.60242 0 0 0 -0.848,0.0849 c -0.0504,-0.19906 -0.0982,-0.39945 -0.15393,-0.59852 A 6.62668,6.62668 0 1 0 482.80568,590.21 q -0.2203,-0.22491 -0.44457,-0.44589 a 6.62391,6.62391 0 1 0 -11.39689,-6.56369 c -0.1964,-0.0557 -0.39414,-0.10218 -0.59056,-0.15262 a 6.63957,6.63957 0 1 0 -13.10086,0 c -0.1964,0.0504 -0.39414,0.0969 -0.59056,0.15262 a 6.62767,6.62767 0 1 0 -11.39688,6.56369 26.52754,26.52754 0 1 0 44.23127,25.52756 6.6211,6.6211 0 1 0 0.848,-13.18579"
     transform="translate(-35.5,-118.5)"
     fill="#44d860"
     fill-rule="evenodd"
     id="path5963"
     style="display:none" />
  <path
     d="M 437.28182,555.65836 H 477.094 v -26.54143 h -39.81218 z"
     transform="translate(-35.5,-118.5)"
     fill="#3ecc5f"
     fill-rule="evenodd"
     id="path5965"
     style="display:none" />
  <path
     d="m 490.36468,545.70532 a 3.31768,3.31768 0 0 0 0,-6.63536 3.41133,3.41133 0 0 0 -0.42333,0.0425 c -0.0265,-0.0995 -0.0491,-0.19907 -0.077,-0.29859 a 3.319,3.319 0 0 0 -1.278,-6.37923 3.28174,3.28174 0 0 0 -2.00122,0.68742 q -0.10947,-0.11346 -0.22294,-0.22295 a 3.282,3.282 0 0 0 0.67149,-1.98265 3.31768,3.31768 0 0 0 -6.37,-1.2992 13.27078,13.27078 0 1 0 0,25.54082 3.31768,3.31768 0 0 0 6.37,-1.2992 3.282,3.282 0 0 0 -0.67149,-1.98265 q 0.11347,-0.10947 0.22294,-0.22294 a 3.28174,3.28174 0 0 0 2.00122,0.68742 3.31768,3.31768 0 0 0 1.278,-6.37923 c 0.0279,-0.0982 0.0504,-0.19907 0.077,-0.29859 a 3.41325,3.41325 0 0 0 0.42333,0.0425"
     transform="translate(-35.5,-118.5)"
     fill="#44d860"
     fill-rule="evenodd"
     id="path5967"
     style="display:none" />
  <path
     d="m 317.84538,466.081 a 3.31768,3.31768 0 0 1 -3.31767,-3.31768 9.95304,9.95304 0 1 0 -19.90608,0 3.31768,3.31768 0 1 1 -6.63535,0 16.58839,16.58839 0 1 1 33.17678,0 3.31768,3.31768 0 0 1 -3.31768,3.31768"
     transform="translate(-35.5,-118.5)"
     fill-rule="evenodd"
     id="path5969"
     style="display:none" />
  <path
     d="m 370.92825,635.28265 h 79.62429 A 26.5409,26.5409 0 0 0 477.094,608.74122 v -92.895 h -79.62432 a 26.54091,26.54091 0 0 0 -26.54143,26.54143 z"
     transform="translate(-35.5,-118.5)"
     fill="#ffff50"
     fill-rule="evenodd"
     id="path5971"
     style="display:none" />
  <path
     d="m 457.21444,556.98543 h -66.40666 a 1.32707,1.32707 0 0 1 0,-2.65414 h 66.40666 a 1.32707,1.32707 0 0 1 0,2.65414 m 0,26.54143 h -66.40666 a 1.32707,1.32707 0 1 1 0,-2.65414 h 66.40666 a 1.32707,1.32707 0 0 1 0,2.65414 m 0,26.54143 h -66.40666 a 1.32707,1.32707 0 1 1 0,-2.65414 h 66.40666 a 1.32707,1.32707 0 0 1 0,2.65414 m 0,-66.10674 h -66.40666 a 1.32707,1.32707 0 0 1 0,-2.65414 h 66.40666 a 1.32707,1.32707 0 0 1 0,2.65414 m 0,26.29459 h -66.40666 a 1.32707,1.32707 0 0 1 0,-2.65414 h 66.40666 a 1.32707,1.32707 0 0 1 0,2.65414 m 0,26.54143 h -66.40666 a 1.32707,1.32707 0 0 1 0,-2.65414 h 66.40666 a 1.32707,1.32707 0 0 1 0,2.65414 M 477.094,474.19076 c -0.0159,0 -0.0292,-0.008 -0.0451,-0.007 -4.10064,0.13934 -6.04083,4.24132 -7.75274,7.86024 -1.78623,3.78215 -3.16771,6.24122 -5.43171,6.16691 -2.50685,-0.0902 -3.94007,-2.92222 -5.45825,-5.91874 -1.74377,-3.44243 -3.73438,-7.34667 -7.91333,-7.20069 -4.04227,0.138 -5.98907,3.70784 -7.70631,6.857 -1.82738,3.35484 -3.07084,5.39455 -5.46887,5.30033 -2.55727,-0.0929 -3.91619,-2.39536 -5.48877,-5.06013 -1.75306,-2.96733 -3.77951,-6.30359 -7.8775,-6.18946 -3.97326,0.13669 -5.92537,3.16507 -7.64791,5.83912 -1.82207,2.82666 -3.09872,4.5492 -5.52725,4.447 -2.61832,-0.0929 -3.9706,-2.00388 -5.53522,-4.21611 -1.757,-2.4856 -3.737,-5.299 -7.82308,-5.16231 -3.88567,0.13271 -5.83779,2.61434 -7.559,4.80135 -1.635,2.07555 -2.9116,3.71846 -5.61218,3.615 a 1.32793,1.32793 0 1 0 -0.0956,2.65414 c 4.00377,0.134 6.03154,-2.38873 7.79257,-4.6275 1.562,-1.9853 2.91027,-3.69855 5.56441,-3.78879 2.55594,-0.10882 3.75429,1.47968 5.56707,4.04093 1.7212,2.43385 3.67465,5.19416 7.60545,5.33616 4.11789,0.138 6.09921,-2.93946 7.8536,-5.66261 1.56861,-2.43385 2.92221,-4.53461 5.50734,-4.62352 2.37944,-0.0889 3.67466,1.79154 5.50072,4.885 1.72121,2.91557 3.67069,6.21865 7.67977,6.36463 4.14709,0.14332 6.14965,-3.47693 7.89475,-6.68181 1.51155,-2.77092 2.93814,-5.38791 5.46621,-5.4755 2.37944,-0.0557 3.62025,2.11668 5.45558,5.74622 1.71459,3.388 3.65875,7.22591 7.73019,7.37321 l 0.22429,0.004 c 4.06614,0 5.99571,-4.08074 7.70364,-7.68905 1.51154,-3.19825 2.94211,-6.21069 5.3972,-6.33411 z"
     transform="translate(-35.5,-118.5)"
     fill-rule="evenodd"
     id="path5973"
     style="display:none" />
  <path
     d="m 344.38682,635.28265 h 53.08286 v -53.08286 h -53.08286 z"
     transform="translate(-35.5,-118.5)"
     fill="#3ecc5f"
     fill-rule="evenodd"
     id="path5975"
     style="display:none" />
  <path
     d="m 424.01111,602.10586 a 6.60242,6.60242 0 0 0 -0.848,0.0849 c -0.0504,-0.19906 -0.0982,-0.39945 -0.15394,-0.59852 A 6.62667,6.62667 0 1 0 416.45211,590.21 q -0.2203,-0.22491 -0.44458,-0.44589 a 6.62391,6.62391 0 1 0 -11.39689,-6.56369 c -0.1964,-0.0557 -0.39413,-0.10218 -0.59054,-0.15262 a 6.63957,6.63957 0 1 0 -13.10084,0 c -0.19641,0.0504 -0.39414,0.0969 -0.59055,0.15262 a 6.62767,6.62767 0 1 0 -11.39689,6.56369 26.52755,26.52755 0 1 0 44.2313,25.52756 6.6211,6.6211 0 1 0 0.848,-13.18579"
     transform="translate(-35.5,-118.5)"
     fill="#44d860"
     fill-rule="evenodd"
     id="path5977"
     style="display:none" />
  <path
     d="m 344.38682,555.65836 h 53.08286 v -26.54143 h -53.08286 z"
     transform="translate(-35.5,-118.5)"
     fill="#3ecc5f"
     fill-rule="evenodd"
     id="path5979"
     style="display:none" />
  <path
     d="m 410.74039,545.70532 a 3.31768,3.31768 0 1 0 0,-6.63536 3.41133,3.41133 0 0 0 -0.42333,0.0425 c -0.0266,-0.0995 -0.0491,-0.19907 -0.077,-0.29859 a 3.319,3.319 0 0 0 -1.278,-6.37923 3.28174,3.28174 0 0 0 -2.00122,0.68742 q -0.10947,-0.11346 -0.22294,-0.22295 a 3.282,3.282 0 0 0 0.67149,-1.98265 3.31768,3.31768 0 0 0 -6.37,-1.2992 13.27078,13.27078 0 1 0 0,25.54082 3.31768,3.31768 0 0 0 6.37,-1.2992 3.282,3.282 0 0 0 -0.67149,-1.98265 q 0.11347,-0.10947 0.22294,-0.22294 a 3.28174,3.28174 0 0 0 2.00122,0.68742 3.31768,3.31768 0 0 0 1.278,-6.37923 c 0.0279,-0.0982 0.0504,-0.19907 0.077,-0.29859 a 3.41325,3.41325 0 0 0 0.42333,0.0425"
     transform="translate(-35.5,-118.5)"
     fill="#44d860"
     fill-rule="evenodd"
     id="path5981"
     style="display:none" />
  <path
     d="m 424.01111,447.8338 a 3.60349,3.60349 0 0 1 -0.65028,-0.0664 3.34415,3.34415 0 0 1 -0.62372,-0.18579 3.44679,3.44679 0 0 1 -0.572,-0.30522 5.02708,5.02708 0 0 1 -0.50429,-0.4114 3.88726,3.88726 0 0 1 -0.41007,-0.50428 3.27532,3.27532 0 0 1 -0.55737,-1.84463 3.60248,3.60248 0 0 1 0.0664,-0.65027 3.82638,3.82638 0 0 1 0.18447,-0.62373 3.48858,3.48858 0 0 1 0.30656,-0.57064 3.197,3.197 0 0 1 0.91436,-0.91568 3.44685,3.44685 0 0 1 0.572,-0.30523 3.344,3.344 0 0 1 0.62372,-0.18578 3.06907,3.06907 0 0 1 1.30053,0 3.22332,3.22332 0 0 1 1.19436,0.491 5.02835,5.02835 0 0 1 0.50429,0.41139 4.8801,4.8801 0 0 1 0.41139,0.50429 3.38246,3.38246 0 0 1 0.30522,0.57064 3.47806,3.47806 0 0 1 0.25215,1.274 3.36394,3.36394 0 0 1 -0.96879,2.34889 5.02708,5.02708 0 0 1 -0.50429,0.4114 3.3057,3.3057 0 0 1 -1.84463,0.55737 m 26.54143,-1.65884 a 3.38754,3.38754 0 0 1 -2.35024,-0.96877 5.04185,5.04185 0 0 1 -0.41007,-0.50428 3.27532,3.27532 0 0 1 -0.55737,-1.84463 3.38659,3.38659 0 0 1 0.96744,-2.34892 5.02559,5.02559 0 0 1 0.50429,-0.41139 3.44685,3.44685 0 0 1 0.572,-0.30523 3.3432,3.3432 0 0 1 0.62373,-0.18579 3.06952,3.06952 0 0 1 1.30052,0 3.22356,3.22356 0 0 1 1.19436,0.491 5.02559,5.02559 0 0 1 0.50429,0.41139 3.38792,3.38792 0 0 1 0.96876,2.34892 3.72635,3.72635 0 0 1 -0.0664,0.65026 3.37387,3.37387 0 0 1 -0.18579,0.62373 4.71469,4.71469 0 0 1 -0.30522,0.57064 4.8801,4.8801 0 0 1 -0.41139,0.50429 5.02559,5.02559 0 0 1 -0.50429,0.41139 3.30547,3.30547 0 0 1 -1.84463,0.55737"
     transform="translate(-35.5,-118.5)"
     fill-rule="evenodd"
     id="path5983"
     style="display:none" />
  <g
     style="fill:#90670e;fill-opacity:1"
     id="g1459"
     transform="matrix(0.23459497,0,0,0.24481567,983.60685,223.8782)">
    <g
       id="g1440"
       style="fill:#90670e;fill-opacity:1">
	<g
   id="g1438"
   style="fill:#90670e;fill-opacity:1">
		<path
   d="m 456.982,329.814 c -6.25,0 -11.335,5.085 -11.335,11.335 0,6.251 5.085,11.335 11.335,11.335 6.25,0 11.335,-5.085 11.335,-11.335 0,-6.25 -5.085,-11.335 -11.335,-11.335 z"
   id="path1436"
   style="fill:#90670e;fill-opacity:1" />

	</g>

</g>
    <g
       id="g1446"
       style="fill:#90670e;fill-opacity:1">
	<g
   id="g1444"
   style="fill:#90670e;fill-opacity:1">
		<path
   d="m 392.885,219.305 c 2.294,-11.936 11.799,-62.235 15.013,-92.169 2.447,0.012 4.89,0.036 7.34,0.036 1.055,0 2.1,-0.201 3.08,-0.593 l 88.466,-35.386 c 4.253,-1.702 6.322,-6.528 4.621,-10.781 -1.702,-4.254 -6.531,-6.321 -10.781,-4.621 l -57.706,23.083 22.574,-27.052 42.475,-25.449 c 3.93,-2.354 5.206,-7.448 2.852,-11.377 -2.354,-3.931 -7.45,-5.205 -11.377,-2.852 l -43.68,26.171 c -0.798,0.479 -1.509,1.086 -2.105,1.8 l -42.106,50.455 c -0.867,-0.002 -1.731,-0.012 -2.596,-0.015 -0.011,-0.589 -0.032,-1.148 -0.065,-1.66 -0.126,-1.944 -0.422,-6.498 -4.076,-9.308 -6.429,-4.947 -21.266,-7.904 -33.107,-4.42 -7.67,2.256 -10.667,6.609 -11.829,9.863 -0.258,0.721 -0.844,2.251 -1.699,4.434 -17.367,-0.679 -34.534,-1.674 -51.421,-2.971 0.333,-0.612 0.54,-0.964 0.556,-0.992 1.786,-2.928 1.585,-6.656 -0.508,-9.375 -1.023,-1.328 -10.636,-12.98 -33.431,-12.077 -8.391,0.323 -15.834,6.012 -22.255,16.95 -8.549,-1.037 -17.042,-2.152 -25.459,-3.358 -0.209,-5.54 -2.233,-10.285 -7.286,-13.443 -8.256,-5.16 -18.301,-6.8 -26.868,-4.392 -4.301,1.21 -9.827,3.891 -14.889,9.701 -6.328,-1.196 -12.6,-2.437 -18.805,-3.73 0.506,-1.766 0.428,-3.699 -0.323,-5.492 -0.389,-0.931 -9.827,-22.782 -34.189,-22.782 -10.353,0 -19.393,4.526 -27.782,13.09 C 40.903,55.154 12.395,40.886 12.047,40.711 7.968,38.641 2.975,40.269 0.901,44.351 c -2.075,4.084 -0.446,9.077 3.638,11.15 1.18,0.599 27.835,14 79.917,29.18 -10.398,15.926 -20.185,38.468 -30.839,66.651 -8.029,21.241 -16.824,37.602 -25.329,53.426 -15.179,28.238 -28.286,52.626 -28.286,91.053 0,30.768 14.089,77.46 53.631,116.227 21.395,20.976 47.964,37.469 78.971,49.02 35.582,13.255 77.098,19.977 123.395,19.977 66.897,0 124.177,-12.635 170.248,-37.555 43.497,-23.527 65.504,-52.065 74.754,-66.983 8.666,-13.98 8.188,-31.963 -1.218,-45.813 -6.527,-9.613 -6.264,-13.391 -6.217,-13.761 4.4,-9.551 1.603,-23.617 -6.389,-32.073 -7.172,-7.587 -17.231,-9.923 -27.944,-6.597 -19.078,-4.339 -46.133,12.865 -68.101,26.839 l -2.893,1.838 c -4.658,2.954 -10.432,3.522 -15.615,1.669 1.653,-4.954 3.843,-12.86 6.91,-25.85 4.017,-17.016 8.759,-39.548 13.351,-63.444 z M 300.196,122.62 c 16.899,1.367 34.089,2.427 51.483,3.179 -9.479,23.599 -25.002,61.592 -35.613,86.052 -3.486,-13.442 -7.763,-25.374 -11.326,-35.313 -2.163,-6.034 -4.032,-11.246 -5.416,-15.825 -4.208,-13.916 -2.187,-27.751 0.872,-38.093 z m -85.705,12.057 c 0.717,-1.793 1.519,-3.709 2.352,-5.696 2.007,-4.79 4.155,-9.928 5.833,-15.009 7.009,1.008 14.069,1.953 21.17,2.846 -0.854,2.322 -1.684,4.762 -2.489,7.328 -6.577,20.987 -10.711,48.015 -11.342,74.154 -0.483,20.072 -4.042,37.609 -9.099,52.644 -2.71,-1.516 -5.522,-2.895 -8.414,-4.134 0.081,-5.166 -0.016,-13.54 -0.174,-25.901 -0.324,-25.424 -0.998,-78.33 2.163,-86.232 z M 184.534,107.84 c 7.081,1.264 14.239,2.455 21.443,3.598 -1.548,4.246 -3.309,8.452 -4.432,11.133 -0.869,2.075 -1.706,4.074 -2.455,5.945 -3.71,9.273 -4.037,38.462 -3.347,92.605 0.092,7.196 0.186,14.524 0.199,20.073 -18.343,-4.846 -37.119,-5.942 -49.074,-6.495 0.063,-1.985 0.1,-3.671 0.119,-4.929 0.232,-15.187 -0.56,-30.2 -2.229,-43.708 3.814,-8.739 15.988,-32.195 25.867,-51.228 5.347,-10.3 10.416,-20.068 13.909,-26.994 z m -38.545,-7.62 c 7.1,1.543 14.287,3.023 21.554,4.441 -3.239,6.343 -7.352,14.265 -11.642,22.532 -5.685,10.952 -11.462,22.083 -16.279,31.569 -4.856,-20.182 -3.902,-37.752 2.878,-52.238 1.114,-2.377 2.305,-4.465 3.489,-6.304 z m 251.132,220.719 2.914,-1.851 c 15.765,-10.025 45.111,-28.688 56.495,-24.369 1.944,0.738 4.092,0.718 6.021,-0.054 5.409,-2.165 9.521,-1.649 12.572,1.581 3.941,4.167 4.639,11.036 3.372,13.752 -3.51,7.523 -1.034,17.337 7.567,30.006 5.732,8.44 6.06,19.333 0.84,27.756 -8.379,13.516 -28.425,39.431 -68.544,61.131 -43.62,23.595 -98.246,35.558 -162.357,35.558 -44.314,0 -83.882,-6.371 -117.605,-18.934 C 109.582,434.781 84.97,419.533 65.248,400.195 29.373,365.022 16.591,323.212 16.591,295.811 c 0,-34.253 11.61,-55.853 26.31,-83.2 8.351,-15.538 17.817,-33.149 26.235,-55.412 22.315,-59.028 38.009,-83.105 54.168,-83.105 7.872,0 13.003,4.322 15.904,7.907 -9.804,10.383 -27.211,36.509 -15.085,83.196 9.946,38.292 6.469,97.493 0.609,109.211 -2.049,4.097 -0.389,9.079 3.709,11.127 4.098,2.051 9.08,0.388 11.128,-3.708 3.495,-6.991 5.349,-19.363 6.332,-30.567 15.805,0.734 48.184,2.71 68.884,15.309 -8.584,18.999 -19.094,32.791 -26.857,41.37 -3.073,3.397 -2.811,8.641 0.585,11.715 3.396,3.072 8.641,2.811 11.715,-0.585 16.68,-18.436 44.886,-58.589 46.375,-120.371 0.594,-24.655 4.453,-50.021 10.587,-69.593 7.244,-23.109 14.602,-28.393 16.826,-28.479 7.517,-0.279 12.564,1.291 15.684,2.874 -5.328,11.433 -14.097,36.051 -6.247,62.012 1.505,4.979 3.532,10.635 5.678,16.62 11.817,32.959 29.671,82.767 3.64,136.607 -1.995,4.124 -0.268,9.083 3.856,11.077 1.163,0.563 2.393,0.829 3.604,0.829 3.082,0 6.042,-1.726 7.473,-4.685 3.585,-7.413 6.419,-14.763 8.617,-22.015 0.521,0.103 1.058,0.159 1.61,0.159 10.996,0 36.045,13.522 44.276,17.966 11.032,5.962 24.415,5.525 34.914,-1.131 z m -39.439,-19.932 c -17.094,-8.573 -28.797,-12.745 -37.421,-13.392 3.045,-16.748 2.969,-32.798 1.19,-47.702 8.655,-16.684 35.474,-82.489 47.829,-113.453 7.293,0.226 14.62,0.384 21.965,0.501 -1.947,17.002 -6.32,45.122 -13.297,82.101 -8.449,44.781 -16.147,78.401 -20.266,91.945 z"
   id="path1442"
   style="fill:#90670e;fill-opacity:1" />

	</g>

</g>
  </g>
  <g
     style="fill:#1cc40f;fill-opacity:1;stroke:none;stroke-opacity:1"
     id="g711"
     transform="matrix(0.48617468,0,0,0.52420813,188.77899,354.62409)">
    <g
       id="g692"
       style="fill:#1cc40f;fill-opacity:1;stroke:none;stroke-opacity:1">
	<g
   id="g690"
   style="fill:#1cc40f;fill-opacity:1;stroke:none;stroke-opacity:1">
		<path
   d="m 511.955,286.874 c -0.105,-1.016 -2.7,-25.204 -12.317,-52.426 -13.125,-37.155 -32.331,-61.1 -57.091,-71.22 -6.982,-11.746 -19.905,-26.735 -42.528,-33.804 -4.334,-1.352 -8.954,1.03 -10.359,5.349 -0.112,0.343 -1.018,3.207 -1.924,7.962 -2.561,-1.107 -5.646,-2.25 -9.28,-3.282 -14.842,-4.213 -31.946,-4.818 -50.867,-1.808 -10.161,-3.685 -54.353,-18.796 -114.81,-26.229 -60.724,-7.467 -113.65,11.203 -157.312,55.488 -34.232,34.722 -31.745,72.52 -29.746,102.893 0.421,6.397 0.818,12.438 0.818,17.937 0,28.563 -24.868,65.759 -25.117,66.128 -1.981,2.929 -1.885,6.793 0.236,9.622 l 19.881,26.508 c 5.727,7.637 14.846,12.196 24.392,12.196 h 15.442 c 4.58,0 8.294,-3.713 8.294,-8.294 0,-4.58 -3.713,-8.294 -8.294,-8.294 h -7.74 c 7.939,-6.62 19.31,-16.614 31.353,-28.887 5.62,-5.727 10.839,-11.386 15.656,-16.97 3.134,17.624 4.543,35.716 5.145,46.279 0.518,9.065 8.053,16.165 17.154,16.165 h 44.592 c 4.58,0 8.294,-3.713 8.294,-8.294 0,-4.58 -3.713,-8.294 -8.294,-8.294 h -14.401 c 10.668,-29.442 13.199,-53.663 13.717,-60.291 4.919,0.337 9.789,0.5 14.566,0.5 29.249,0 55.054,-5.711 67.931,-9.651 6.651,26.788 31.456,75.313 34.67,81.54 1.423,2.758 4.266,4.49 7.37,4.49 h 44.233 c 4.58,0 8.294,-3.713 8.294,-8.294 0,-4.58 -3.713,-8.294 -8.294,-8.294 h -13.708 c 5.2,-11.833 13.285,-31.023 20.129,-50.697 1.453,-0.257 3.574,-0.697 6.183,-1.402 17.603,37.316 51.382,65.543 52.883,66.783 1.486,1.23 3.356,1.902 5.285,1.902 h 35.387 c 4.58,0 8.294,-3.713 8.294,-8.294 0,-4.58 -3.713,-8.294 -8.294,-8.294 h -13.374 c -5.699,-9.391 -9.974,-26.826 -12.15,-49.894 -1.004,-10.64 -1.391,-20.598 -1.53,-27.784 4.913,2.584 10.469,4.545 16.746,5.67 18.984,3.4 32.346,5.618 40.212,6.878 1.511,0.242 3.02,0.36 4.521,0.36 9.501,0 18.567,-4.74 23.938,-12.796 l 10.466,-15.698 c 1.072,-1.607 1.548,-3.537 1.348,-5.459 z m -376.554,98.725 h -12.459 c -0.332,0 -0.575,-0.215 -0.593,-0.523 -0.785,-13.749 -2.894,-39.788 -8.254,-62.153 1.874,-2.548 3.664,-5.079 5.358,-7.592 10.067,3.875 20.492,6.478 30.898,8.123 -0.355,4.73 -2.82,31.171 -14.95,62.145 z m 274.089,0 c -7.433,-6.615 -31.952,-29.715 -45.663,-57.906 10.553,-5.012 23.048,-13.278 34.219,-26.8 -0.065,14.816 0.777,57.794 11.904,84.706 z m 76.85,-86.768 c -2.63,3.944 -7.352,6.007 -12.031,5.258 -7.798,-1.251 -21.053,-3.449 -39.913,-6.827 -13.374,-2.396 -23.491,-10.209 -30.069,-23.224 -5.406,-10.697 -7.333,-22.789 -7.333,-30.54 0,-4.58 -3.713,-8.294 -8.294,-8.294 -4.58,0 -8.294,3.713 -8.294,8.294 0,10.424 2.619,25.906 10.142,39.772 -13.874,20.554 -31.581,29.341 -42.505,32.998 1.835,-6.272 3.4,-12.365 4.552,-18.041 0.911,-4.489 -1.989,-8.867 -6.479,-9.777 -4.485,-0.908 -8.867,1.989 -9.777,6.479 -6.203,30.571 -25.977,75.965 -32.593,90.668 h -7.283 c -13.319,-26.327 -32.169,-67.865 -32.169,-80.173 0,-14.478 7.98,-31.69 8.057,-31.856 1.951,-4.143 0.171,-9.086 -3.973,-11.035 -4.146,-1.953 -9.086,-0.171 -11.035,3.973 -0.348,0.74 -7.631,16.391 -9.296,32.623 -14.284,5.133 -71.864,18.804 -119.755,1.783 5.461,-9.914 9.432,-19.512 11.873,-28.757 1.17,-4.429 -1.472,-8.967 -5.901,-10.137 -4.429,-1.168 -8.967,1.472 -10.137,5.901 -13.256,50.184 -77.613,102.408 -89.579,111.767 L 18.371,358.117 c 7.373,-12.034 24.755,-43.28 24.755,-70.386 0,-6.042 -0.415,-12.349 -0.854,-19.026 -1.873,-28.471 -3.998,-60.74 25.006,-90.158 19.239,-19.514 40.501,-33.715 63.195,-42.207 24.469,-9.157 51.478,-12.003 80.28,-8.463 65.543,8.058 112.583,25.873 113.047,26.051 1.397,0.536 2.911,0.682 4.383,0.43 34.521,-5.969 53.122,3.269 57.674,5.989 -0.26,9.194 0.518,20.259 3.669,32.19 0.983,3.719 4.34,6.177 8.014,6.177 0.701,0 1.413,-0.09 2.123,-0.276 4.429,-1.17 7.071,-5.708 5.901,-10.137 -4.311,-16.317 -3.364,-30.886 -1.999,-39.675 23.398,11.435 29.907,34.026 30.209,35.116 1.194,4.407 5.727,7.023 10.142,5.844 2.188,-0.583 3.935,-1.99 5.002,-3.799 33.962,25.37 44.226,85.992 46.168,99.922 z"
   id="path688"
   style="fill:#1cc40f;fill-opacity:1;stroke:none;stroke-opacity:1" />

	</g>

</g>
    <g
       id="g698"
       style="fill:#1cc40f;fill-opacity:1;stroke:none;stroke-opacity:1">
	<g
   id="g696"
   style="fill:#1cc40f;fill-opacity:1;stroke:none;stroke-opacity:1">
		<path
   d="m 465.002,236.864 c -5.895,0 -10.69,4.795 -10.69,10.69 10e-4,5.895 4.796,10.69 10.69,10.69 5.894,0 10.69,-4.796 10.69,-10.69 0,-5.896 -4.795,-10.69 -10.69,-10.69 z"
   id="path694"
   style="fill:#1cc40f;fill-opacity:1;stroke:none;stroke-opacity:1" />

	</g>

</g>
  </g>
</svg>
