<?xml version="1.0" encoding="UTF-8" standalone="no"?>
<svg
   width="1041.277"
   height="554.141"
   viewBox="0 0 1041.277 554.141"
   version="1.1"
   id="svg400"
   sodipodi:docname="undraw_docusaurus_react.svg"
   xml:space="preserve"
   inkscape:version="1.2.2 (b0a8486, 2022-12-01)"
   xmlns:inkscape="http://www.inkscape.org/namespaces/inkscape"
   xmlns:sodipodi="http://sodipodi.sourceforge.net/DTD/sodipodi-0.dtd"
   xmlns="http://www.w3.org/2000/svg"
   xmlns:svg="http://www.w3.org/2000/svg"><defs
     id="defs404" /><sodipodi:namedview
     id="namedview402"
     pagecolor="#ffffff"
     bordercolor="#000000"
     borderopacity="0.25"
     inkscape:showpageshadow="2"
     inkscape:pageopacity="0.0"
     inkscape:pagecheckerboard="0"
     inkscape:deskcolor="#d1d1d1"
     showgrid="false"
     inkscape:zoom="0.42588439"
     inkscape:cx="420.30186"
     inkscape:cy="280.59258"
     inkscape:window-width="1385"
     inkscape:window-height="727"
     inkscape:window-x="1920"
     inkscape:window-y="25"
     inkscape:window-maximized="0"
     inkscape:current-layer="svg400" /><title
     id="title242">Powered by React</title><g
     id="Group_24"
     data-name="Group 24"
     transform="translate(-440 -263)"><g
       id="Group_23"
       data-name="Group 23"
       transform="translate(439.989,262.965)"
       style="display:inline"><path
         id="Path_299"
         data-name="Path 299"
         d="m 1040.82,611.12 q -1.74,3.75 -3.47,7.4 -2.7,5.67 -5.33,11.12 c -0.78,1.61 -1.56,3.19 -2.32,4.77 -8.6,17.57 -16.63,33.11 -23.45,45.89 A 73.21,73.21 0 0 1 942.44,719 l -151.65,1.65 h -1.6 l -13,0.14 -11.12,0.12 -34.1,0.37 h -1.38 l -17.36,0.19 h -0.53 l -107,1.16 -95.51,1 -11.11,0.12 -69,0.75 H 429 l -44.75,0.48 h -0.48 l -141.5,1.53 -42.33,0.46 a 87.991,87.991 0 0 1 -10.79,-0.54 v 0 c -1.22,-0.14 -2.44,-0.3 -3.65,-0.49 A 87.38,87.38 0 0 1 134.21,698.4 C 116,678.37 102.75,655 93.85,629.64 q -1.93,-5.49 -3.6,-11.12 C 59.44,514.37 97,380 164.6,290.08 q 4.25,-5.64 8.64,-11 l 0.07,-0.08 c 20.79,-25.52 44.1,-46.84 68.93,-62 44,-26.91 92.75,-34.49 140.7,-11.9 40.57,19.12 78.45,28.11 115.17,30.55 3.71,0.24 7.42,0.42 11.11,0.53 84.23,2.65 163.17,-27.7 255.87,-47.29 3.69,-0.78 7.39,-1.55 11.12,-2.28 66.13,-13.16 139.49,-20.1 226.73,-5.51 a 189.089,189.089 0 0 1 26.76,6.4 q 5.77,1.86 11.12,4 c 41.64,16.94 64.35,48.24 74,87.46 q 1.37,5.46 2.37,11.11 c 17.11,94.34 -33,228.16 -76.37,321.05 z"
         transform="translate(-79.34,-172.91)"
         fill="#f2f2f2" /><path
         id="Path_300"
         data-name="Path 300"
         d="m 576.36,618.52 a 95.21,95.21 0 0 1 -1.87,11.12 h 93.7 v -11.12 z m -78.25,62.81 11.11,-0.09 v -27.47 c -3.81,-0.17 -7.52,-0.34 -11.11,-0.52 z M 265.19,618.52 v 11.12 h 198.5 V 618.52 Z M 1114.87,279 h -74 v -87.49 q -5.35,-2.17 -11.12,-4 V 279 H 776.21 v -92.42 c -3.73,0.73 -7.43,1.5 -11.12,2.28 V 279 H 509.22 v -42.85 c -3.69,-0.11 -7.4,-0.29 -11.11,-0.53 V 279 H 242.24 v -62 c -24.83,15.16 -48.14,36.48 -68.93,62 h -0.07 v 0.08 q -4.4,5.4 -8.64,11 h 8.64 v 328.44 h -83 q 1.66,5.63 3.6,11.12 h 79.39 v 93.62 a 87,87 0 0 0 12.2,2.79 c 1.21,0.19 2.43,0.35 3.65,0.49 v 0 a 87.991,87.991 0 0 0 10.79,0.54 l 42.33,-0.46 v -97 h 255.91 v 94.21 l 11.11,-0.12 V 629.64 H 765.09 V 721 l 11.12,-0.12 v -91.24 h 253.49 v 4.77 c 0.76,-1.58 1.54,-3.16 2.32,-4.77 q 2.63,-5.45 5.33,-11.12 1.73,-3.64 3.47,-7.4 v -321 h 76.42 q -1.01,-5.69 -2.37,-11.12 z M 242.24,618.52 V 290.08 h 255.87 v 328.44 z m 267,0 V 290.08 h 255.85 v 328.44 z m 520.48,0 H 776.21 V 290.08 h 253.49 z"
         transform="translate(-79.34,-172.91)"
         opacity="0.1" /><path
         id="Path_301"
         data-name="Path 301"
         d="m 863.09,533.65 v 13 l -151.92,1.4 -1.62,0.03 -57.74,0.53 -1.38,0.02 -17.55,0.15 h -0.52 l -106.98,0.99 -175.61,1.63 h -0.15 l -44.65,0.42 -0.48,0.01 -198.4,1.82 v -15 l 46.65,-28 93.6,-0.78 2,-0.01 0.66,-0.01 2,-0.03 44.94,-0.37 2.01,-0.01 0.64,-0.01 2,-0.01 14.41,-0.12 0.38,-0.01 35.55,-0.3 h 0.29 l 277.4,-2.34 6.79,-0.05 h 0.68 l 5.18,-0.05 37.65,-0.31 2,-0.03 1.85,-0.02 h 0.96 l 11.71,-0.09 2.32,-0.03 3.11,-0.02 9.75,-0.09 15.47,-0.13 2,-0.02 3.48,-0.02 h 0.65 l 74.71,-0.64 z"
         fill="#65617d" /><path
         id="Path_302"
         data-name="Path 302"
         d="m 863.09,533.65 v 13 l -151.92,1.4 -1.62,0.03 -57.74,0.53 -1.38,0.02 -17.55,0.15 h -0.52 l -106.98,0.99 -175.61,1.63 h -0.15 l -44.65,0.42 -0.48,0.01 -198.4,1.82 v -15 l 46.65,-28 93.6,-0.78 2,-0.01 0.66,-0.01 2,-0.03 44.94,-0.37 2.01,-0.01 0.64,-0.01 2,-0.01 14.41,-0.12 0.38,-0.01 35.55,-0.3 h 0.29 l 277.4,-2.34 6.79,-0.05 h 0.68 l 5.18,-0.05 37.65,-0.31 2,-0.03 1.85,-0.02 h 0.96 l 11.71,-0.09 2.32,-0.03 3.11,-0.02 9.75,-0.09 15.47,-0.13 2,-0.02 3.48,-0.02 h 0.65 l 74.71,-0.64 z"
         opacity="0.2" /><path
         id="Path_303"
         data-name="Path 303"
         d="m 375.44,656.57 v 24.49 a 6.13,6.13 0 0 1 -3.5,5.54 6,6 0 0 1 -2.5,0.6 l -34.9,0.74 a 6,6 0 0 1 -2.7,-0.57 6.12,6.12 0 0 1 -3.57,-5.57 v -25.23 z"
         transform="translate(-79.34,-172.91)"
         fill="#3f3d56" /><path
         id="Path_304"
         data-name="Path 304"
         d="m 375.44,656.57 v 24.49 a 6.13,6.13 0 0 1 -3.5,5.54 6,6 0 0 1 -2.5,0.6 l -34.9,0.74 a 6,6 0 0 1 -2.7,-0.57 6.12,6.12 0 0 1 -3.57,-5.57 v -25.23 z"
         transform="translate(-79.34,-172.91)"
         opacity="0.1" /><path
         id="Path_305"
         data-name="Path 305"
         d="m 377.44,656.57 v 24.49 a 6.13,6.13 0 0 1 -3.5,5.54 6,6 0 0 1 -2.5,0.6 l -34.9,0.74 a 6,6 0 0 1 -2.7,-0.57 6.12,6.12 0 0 1 -3.57,-5.57 v -25.23 z"
         transform="translate(-79.34,-172.91)"
         fill="#3f3d56" /><rect
         id="Rectangle_137"
         data-name="Rectangle 137"
         width="47.169998"
         height="31.5"
         transform="translate(680.92,483.65)"
         fill="#3f3d56"
         x="0"
         y="0" /><rect
         id="Rectangle_138"
         data-name="Rectangle 138"
         width="47.169998"
         height="31.5"
         transform="translate(680.92,483.65)"
         opacity="0.1"
         x="0"
         y="0" /><rect
         id="Rectangle_139"
         data-name="Rectangle 139"
         width="47.169998"
         height="31.5"
         transform="translate(678.92,483.65)"
         fill="#3f3d56"
         x="0"
         y="0" /><path
         id="Path_306"
         data-name="Path 306"
         d="m 298.09,483.65 v 4.97 l -47.17,1.26 v -6.23 z"
         opacity="0.1" /><path
         id="Path_307"
         data-name="Path 307"
         d="m 460.69,485.27 v 168.2 a 4,4 0 0 1 -3.85,3.95 l -191.65,5.1 h -0.05 a 4,4 0 0 1 -3.95,-3.95 v -173.3 a 4,4 0 0 1 3.95,-3.95 h 191.6 a 4,4 0 0 1 3.95,3.95 z"
         transform="translate(-79.34,-172.91)"
         fill="#65617d" /><path
         id="Path_308"
         data-name="Path 308"
         d="m 265.19,481.32 v 181.2 h -0.05 a 4,4 0 0 1 -3.95,-3.95 v -173.3 a 4,4 0 0 1 3.95,-3.95 z"
         transform="translate(-79.34,-172.91)"
         opacity="0.1" /><path
         id="Path_309"
         data-name="Path 309"
         d="m 194.59,319.15 h 177.5 V 467.4 l -177.5,4 z"
         fill="#39374d" /><path
         id="Path_310"
         data-name="Path 310"
         d="m 726.09,483.65 v 6.41 l -47.17,-1.26 v -5.15 z"
         opacity="0.1" /><path
         id="Path_311"
         data-name="Path 311"
         d="m 867.69,485.27 v 173.3 a 4,4 0 0 1 -4,3.95 v 0 L 672,657.42 a 4,4 0 0 1 -3.85,-3.95 v -168.2 a 4,4 0 0 1 3.95,-3.95 h 191.6 a 4,4 0 0 1 3.99,3.95 z"
         transform="translate(-79.34,-172.91)"
         fill="#65617d" /><path
         id="Path_312"
         data-name="Path 312"
         d="m 867.69,485.27 v 173.3 a 4,4 0 0 1 -4,3.95 v 0 -181.2 0 a 4,4 0 0 1 4,3.95 z"
         transform="translate(-79.34,-172.91)"
         opacity="0.1" /><path
         id="Path_313"
         data-name="Path 313"
         d="M 775.59,319.15 H 598.09 V 467.4 l 177.5,4 z"
         fill="#39374d" /><path
         id="Path_314"
         data-name="Path 314"
         d="m 663.19,485.27 v 168.2 a 4,4 0 0 1 -3.85,3.95 l -191.65,5.1 v 0 a 4,4 0 0 1 -4,-3.95 v -173.3 a 4,4 0 0 1 3.95,-3.95 h 191.6 a 4,4 0 0 1 3.95,3.95 z"
         transform="translate(-79.34,-172.91)"
         fill="#65617d" /><path
         id="Path_315"
         data-name="Path 315"
         d="m 397.09,319.15 h 177.5 V 467.4 l -177.5,4 z"
         fill="#4267b2" /><path
         id="Path_316"
         data-name="Path 316"
         d="m 863.09,533.65 v 13 l -151.92,1.4 -1.62,0.03 -57.74,0.53 -1.38,0.02 -17.55,0.15 h -0.52 l -106.98,0.99 -175.61,1.63 h -0.15 l -44.65,0.42 -0.48,0.01 -198.4,1.82 v -15 l 202.51,-1.33 h 0.48 l 40.99,-0.28 h 0.19 l 283.08,-1.87 h 0.29 l 0.17,-0.01 h 0.47 l 4.79,-0.03 h 1.46 l 74.49,-0.5 4.4,-0.02 0.98,-0.01 z"
         opacity="0.1" /><circle
         id="Ellipse_111"
         data-name="Ellipse 111"
         cx="51.330002"
         cy="51.330002"
         r="51.330002"
         transform="translate(435.93,246.82)"
         fill="#fbbebe" /><path
         id="Path_317"
         data-name="Path 317"
         d="m 617.94,550.07 c 0,0 -99.5,12 -90,0 3.44,-4.34 4.39,-17.2 4.2,-31.85 -0.06,-4.45 -0.22,-9.06 -0.45,-13.65 -1.1,-22 -3.75,-43.5 -3.75,-43.5 0,0 87,-41 77,-8.5 -4,13.13 -2.69,31.57 0.35,48.88 0.89,5.05 1.92,10 3,14.7 a 344.66,344.66 0 0 0 9.65,33.92 z"
         transform="translate(-79.34,-172.91)"
         fill="#fbbebe" /><path
         id="Path_318"
         data-name="Path 318"
         d="m 585.47,546 c 11.51,-2.13 23.7,-6 34.53,-1.54 2.85,1.17 5.47,2.88 8.39,3.86 2.92,0.98 6.12,1.22 9.16,1.91 10.68,2.42 19.34,10.55 24.9,20 5.56,9.45 8.44,20.14 11.26,30.72 l 6.9,25.83 c 6,22.45 12,45.09 13.39,68.3 a 2437.506,2437.506 0 0 1 -250.84,1.43 c 5.44,-10.34 11,-21.31 10.54,-33 -0.46,-11.69 -7.19,-23.22 -4.76,-34.74 1.55,-7.34 6.57,-13.39 9.64,-20.22 8.75,-19.52 1.94,-45.79 17.32,-60.65 6.92,-6.68 17,-9.21 26.63,-8.89 12.28,0.41 24.85,4.24 37,6.11 15.56,2.36 30.26,3.76 45.94,0.88 z"
         transform="translate(-79.34,-172.91)"
         fill="#ff6584" /><path
         id="Path_319"
         data-name="Path 319"
         d="m 716.37,657.17 -0.1,1.43 v 0.1 l -0.17,2.3 -1.33,18.51 -1.61,22.3 -0.46,6.28 -1,13.44 v 0.17 l -107,1 -175.59,1.9 v 0.84 h -0.14 v -1.12 l 0.45,-14.36 0.86,-28.06 0.74,-23.79 0.07,-2.37 a 10.53,10.53 0 0 1 11.42,-10.17 c 4.72,0.4 10.85,0.89 18.18,1.41 l 3,0.22 c 42.33,2.94 120.56,6.74 199.5,2 1.66,-0.09 3.33,-0.19 5,-0.31 12.24,-0.77 24.47,-1.76 36.58,-3 a 10.53,10.53 0 0 1 11.6,11.23 z"
         transform="translate(-79.34,-172.91)"
         opacity="0.1" /><path
         id="Path_320"
         data-name="Path 320"
         d="m 429.08,725.44 v -0.84 l 175.62,-1.91 107,-1 h 0.3 v -0.17 l 1,-13.44 0.43,-6 1.64,-22.61 1.29,-17.9 v -0.44 a 10.617,10.617 0 0 0 -0.11,-2.47 0.3,0.3 0 0 0 0,-0.1 10.391,10.391 0 0 0 -2,-4.64 10.54,10.54 0 0 0 -9.42,-4 c -12.11,1.24 -24.34,2.23 -36.58,3 -1.67,0.12 -3.34,0.22 -5,0.31 -78.94,4.69 -157.17,0.89 -199.5,-2 l -3,-0.22 c -7.33,-0.52 -13.46,-1 -18.18,-1.41 a 10.54,10.54 0 0 0 -11.24,8.53 11,11 0 0 0 -0.18,1.64 l -0.68,22.16 -0.93,28.07 -0.44,14.36 v 1.12 z"
         transform="translate(-79.34,-172.91)"
         fill="#3f3d56" /><path
         id="Path_321"
         data-name="Path 321"
         d="m 716.67,664.18 -1.23,15.33 -1.83,22.85 -0.46,5.72 -1,12.81 -0.06,0.64 v 0.17 0 l -0.15,1.48 0.11,-1.48 h -0.29 l -107,1 -175.65,1.9 v -0.28 l 0.49,-14.36 1,-28.06 0.64,-18.65 a 6.36,6.36 0 0 1 3.06,-5.25 6.25,6.25 0 0 1 3.78,-0.9 c 2.1,0.17 4.68,0.37 7.69,0.59 4.89,0.36 10.92,0.78 17.94,1.22 13,0.82 29.31,1.7 48,2.42 52,2 122.2,2.67 188.88,-3.17 3,-0.26 6.1,-0.55 9.13,-0.84 a 6.26,6.26 0 0 1 3.48,0.66 5.159,5.159 0 0 1 0.86,0.54 6.14,6.14 0 0 1 2,2.46 3.564,3.564 0 0 1 0.25,0.61 6.279,6.279 0 0 1 0.36,2.59 z"
         transform="translate(-79.34,-172.91)"
         opacity="0.1" /><path
         id="Path_322"
         data-name="Path 322"
         d="m 377.44,677.87 v 3.19 a 6.13,6.13 0 0 1 -3.5,5.54 l -40.1,0.77 a 6.12,6.12 0 0 1 -3.57,-5.57 v -3 z"
         transform="translate(-79.34,-172.91)"
         opacity="0.1" /><path
         id="Path_323"
         data-name="Path 323"
         d="m 298.59,515.57 -52.25,1 v -8.67 l 52.25,-1 z"
         fill="#3f3d56" /><path
         id="Path_324"
         data-name="Path 324"
         d="m 298.59,515.57 -52.25,1 v -8.67 l 52.25,-1 z"
         opacity="0.1" /><path
         id="Path_325"
         data-name="Path 325"
         d="m 300.59,515.57 -52.25,1 v -8.67 l 52.25,-1 z"
         fill="#3f3d56" /><path
         id="Path_326"
         data-name="Path 326"
         d="m 758.56,679.87 v 3.19 a 6.13,6.13 0 0 0 3.5,5.54 l 40.1,0.77 a 6.12,6.12 0 0 0 3.57,-5.57 v -3 z"
         transform="translate(-79.34,-172.91)"
         opacity="0.1" /><path
         id="Path_327"
         data-name="Path 327"
         d="m 678.72,517.57 52.25,1 v -8.67 l -52.25,-1 z"
         opacity="0.1" /><path
         id="Path_328"
         data-name="Path 328"
         d="m 676.72,517.57 52.25,1 v -8.67 l -52.25,-1 z"
         fill="#3f3d56" /><path
         id="Path_329"
         data-name="Path 329"
         d="m 534.13,486.79 c 0.08,7 -3.16,13.6 -5.91,20.07 a 163.491,163.491 0 0 0 -12.66,74.71 c 0.73,11 2.58,22 0.73,32.9 -1.85,10.9 -8.43,21.77 -19,24.9 17.53,10.45 41.26,9.35 57.76,-2.66 8.79,-6.4 15.34,-15.33 21.75,-24.11 A 97.86,97.86 0 0 1 563.49,657.35 103.43,103.43 0 0 0 637,616.53 c 4.31,-5.81 8.06,-12.19 9.72,-19.23 3.09,-13 -1.22,-26.51 -4.51,-39.5 a 266.055,266.055 0 0 1 -6.17,-33 c -0.43,-3.56 -0.78,-7.22 0.1,-10.7 1,-4.07 3.67,-7.51 5.64,-11.22 5.6,-10.54 5.73,-23.3 2.86,-34.88 -2.87,-11.58 -8.49,-22.26 -14.06,-32.81 -4.46,-8.46 -9.3,-17.31 -17.46,-22.28 -5.1,-3.1 -11,-4.39 -16.88,-5.64 l -25.37,-5.43 c -5.55,-1.19 -11.26,-2.38 -16.87,-1.51 -9.47,1.48 -16.14,8.32 -22,15.34 -4.59,5.46 -15.81,15.71 -16.6,22.86 -0.72,6.59 5.1,17.63 6.09,24.58 1.3,9 2.22,6 7.3,11.52 3.21,3.42 5.28,7.37 5.34,12.16 z"
         transform="translate(-79.34,-172.91)"
         fill="#3f3d56" /></g><g
       id="docusaurus_keytar"
       transform="translate(670.271,615.768)"
       style="display:none"><path
         id="Path_40"
         data-name="Path 40"
         d="m 99,52 h 43.635 V 69.662 H 99 Z"
         transform="translate(-49.132,-33.936)"
         fill="#ffffff"
         fill-rule="evenodd" /><path
         id="Path_41"
         data-name="Path 41"
         d="M 13.389,158.195 A 10.377,10.377 0 0 1 4.4,153 a 10.377,10.377 0 0 0 8.988,15.584 h 10.391 v -10.389 z"
         transform="translate(-3,-82.47)"
         fill="#3ecc5f"
         fill-rule="evenodd" /><path
         id="Path_42"
         data-name="Path 42"
         d="M 66.967,38.083 103.34,35.81 V 30.615 A 10.389,10.389 0 0 0 92.95,20.226 H 46.2 l -1.3,-2.249 a 1.5,1.5 0 0 0 -2.6,0 L 41,20.226 39.7,17.977 a 1.5,1.5 0 0 0 -2.6,0 l -1.3,2.249 -1.3,-2.249 a 1.5,1.5 0 0 0 -2.6,0 l -1.3,2.249 h -0.034 l -2.152,-2.151 a 1.5,1.5 0 0 0 -2.508,0.672 L 25.21,21.4 22.51,20.677 a 1.5,1.5 0 0 0 -1.836,1.837 l 0.722,2.7 -2.65,0.71 a 1.5,1.5 0 0 0 -0.673,2.509 l 2.152,2.152 c 0,0.011 0,0.022 0,0.033 l -2.249,1.3 a 1.5,1.5 0 0 0 0,2.6 l 2.249,1.3 -2.249,1.3 a 1.5,1.5 0 0 0 0,2.6 l 2.25,1.282 -2.249,1.3 a 1.5,1.5 0 0 0 0,2.6 l 2.249,1.3 -2.249,1.3 a 1.5,1.5 0 0 0 0,2.6 l 2.249,1.3 -2.249,1.3 a 1.5,1.5 0 0 0 0,2.6 l 2.249,1.3 -2.249,1.3 a 1.5,1.5 0 0 0 0,2.6 l 2.249,1.3 -2.249,1.3 a 1.5,1.5 0 0 0 0,2.6 l 2.249,1.3 -2.249,1.3 a 1.5,1.5 0 0 0 0,2.6 l 2.249,1.3 -2.249,1.3 a 1.5,1.5 0 0 0 0,2.6 l 2.249,1.3 -2.249,1.3 a 1.5,1.5 0 0 0 0,2.6 l 2.249,1.3 -2.249,1.3 a 1.5,1.5 0 0 0 0,2.6 l 2.249,1.3 -2.249,1.3 a 1.5,1.5 0 0 0 0,2.6 l 2.249,1.3 a 10.389,10.389 0 0 0 10.389,10.34 H 92.95 A 10.389,10.389 0 0 0 103.34,92.95 V 51.393 L 66.967,49.12 a 5.53,5.53 0 0 1 0,-11.038"
         transform="translate(-9.836,-17.226)"
         fill="#3ecc5f"
         fill-rule="evenodd" /><path
         id="Path_43"
         data-name="Path 43"
         d="m 143,163.779 h 15.584 V 143 H 143 Z"
         transform="translate(-70.275,-77.665)"
         fill="#3ecc5f"
         fill-rule="evenodd" /><path
         id="Path_44"
         data-name="Path 44"
         d="m 173.779,148.389 a 2.582,2.582 0 0 0 -0.332,0.033 c -0.02,-0.078 -0.038,-0.156 -0.06,-0.234 a 2.594,2.594 0 1 0 -2.567,-4.455 q -0.086,-0.088 -0.174,-0.175 a 2.593,2.593 0 1 0 -4.461,-2.569 c -0.077,-0.022 -0.154,-0.04 -0.231,-0.06 a 2.6,2.6 0 1 0 -5.128,0 c -0.077,0.02 -0.154,0.038 -0.231,0.06 a 2.594,2.594 0 1 0 -4.461,2.569 10.384,10.384 0 1 0 17.314,9.992 2.592,2.592 0 1 0 0.332,-5.161"
         transform="translate(-75.08,-75.262)"
         fill="#44d860"
         fill-rule="evenodd" /><path
         id="Path_45"
         data-name="Path 45"
         d="m 153,113.389 h 15.584 V 103 H 153 Z"
         transform="translate(-75.08,-58.444)"
         fill="#3ecc5f"
         fill-rule="evenodd" /><path
         id="Path_46"
         data-name="Path 46"
         d="m 183.389,108.944 a 1.3,1.3 0 1 0 0,-2.6 1.336,1.336 0 0 0 -0.166,0.017 c -0.01,-0.039 -0.019,-0.078 -0.03,-0.117 a 1.3,1.3 0 0 0 -0.5,-2.5 1.285,1.285 0 0 0 -0.783,0.269 q -0.043,-0.044 -0.087,-0.087 a 1.285,1.285 0 0 0 0.263,-0.776 1.3,1.3 0 0 0 -2.493,-0.509 5.195,5.195 0 1 0 0,10 1.3,1.3 0 0 0 2.493,-0.509 1.285,1.285 0 0 0 -0.263,-0.776 q 0.044,-0.043 0.087,-0.087 a 1.285,1.285 0 0 0 0.783,0.269 1.3,1.3 0 0 0 0.5,-2.5 c 0.011,-0.038 0.02,-0.078 0.03,-0.117 a 1.337,1.337 0 0 0 0.166,0.017"
         transform="translate(-84.691,-57.894)"
         fill="#44d860"
         fill-rule="evenodd" /><path
         id="Path_47"
         data-name="Path 47"
         d="m 52.188,48.292 a 1.3,1.3 0 0 1 -1.3,-1.3 3.9,3.9 0 0 0 -7.792,0 1.3,1.3 0 1 1 -2.6,0 6.4935,6.4935 0 0 1 12.987,0 1.3,1.3 0 0 1 -1.3,1.3"
         transform="translate(-21.02,-28.41)"
         fill-rule="evenodd" /><path
         id="Path_48"
         data-name="Path 48"
         d="m 103,139.752 h 31.168 a 10.389,10.389 0 0 0 10.389,-10.389 V 93 H 113.389 A 10.389,10.389 0 0 0 103,103.389 Z"
         transform="translate(-51.054,-53.638)"
         fill="#ffff50"
         fill-rule="evenodd" /><path
         id="Path_49"
         data-name="Path 49"
         d="m 141.1,94.017 h -25.994 a 0.5195,0.5195 0 1 1 0,-1.039 H 141.1 a 0.5195,0.5195 0 0 1 0,1.039 m 0,10.389 h -25.994 a 0.5195,0.5195 0 1 1 0,-1.039 H 141.1 a 0.5195,0.5195 0 0 1 0,1.039 m 0,10.389 h -25.994 a 0.5195,0.5195 0 1 1 0,-1.039 H 141.1 a 0.5195,0.5195 0 0 1 0,1.039 m 0,-25.877 h -25.994 a 0.5195,0.5195 0 1 1 0,-1.039 H 141.1 a 0.5195,0.5195 0 0 1 0,1.039 m 0,10.293 h -25.994 a 0.5195,0.5195 0 1 1 0,-1.039 H 141.1 a 0.5195,0.5195 0 0 1 0,1.039 m 0,10.389 h -25.994 a 0.5195,0.5195 0 1 1 0,-1.039 H 141.1 a 0.5195,0.5195 0 0 1 0,1.039 m 7.782,-47.993 c -0.006,0 -0.011,0 -0.018,0 -1.605,0.055 -2.365,1.66 -3.035,3.077 -0.7,1.48 -1.24,2.443 -2.126,2.414 -0.981,-0.035 -1.542,-1.144 -2.137,-2.317 -0.683,-1.347 -1.462,-2.876 -3.1,-2.819 -1.582,0.054 -2.344,1.451 -3.017,2.684 -0.715,1.313 -1.2,2.112 -2.141,2.075 -1,-0.036 -1.533,-0.938 -2.149,-1.981 -0.686,-1.162 -1.479,-2.467 -3.084,-2.423 -1.555,0.053 -2.319,1.239 -2.994,2.286 -0.713,1.106 -1.213,1.781 -2.164,1.741 -1.025,-0.036 -1.554,-0.784 -2.167,-1.65 -0.688,-0.973 -1.463,-2.074 -3.062,-2.021 a 3.815,3.815 0 0 0 -2.959,1.879 c -0.64,0.812 -1.14,1.456 -2.2,1.415 a 0.52,0.52 0 0 0 -0.037,1.039 3.588,3.588 0 0 0 3.05,-1.811 c 0.611,-0.777 1.139,-1.448 2.178,-1.483 1,-0.043 1.47,0.579 2.179,1.582 0.674,0.953 1.438,2.033 2.977,2.089 1.612,0.054 2.387,-1.151 3.074,-2.217 0.614,-0.953 1.144,-1.775 2.156,-1.81 0.931,-0.035 1.438,0.7 2.153,1.912 0.674,1.141 1.437,2.434 3.006,2.491 1.623,0.056 2.407,-1.361 3.09,-2.616 0.592,-1.085 1.15,-2.109 2.14,-2.143 0.931,-0.022 1.417,0.829 2.135,2.249 0.671,1.326 1.432,2.828 3.026,2.886 h 0.088 c 1.592,0 2.347,-1.6 3.015,-3.01 0.592,-1.252 1.152,-2.431 2.113,-2.479 z"
         transform="translate(-55.378,-38.552)"
         fill-rule="evenodd" /><path
         id="Path_50"
         data-name="Path 50"
         d="m 83,163.779 h 20.779 V 143 H 83 Z"
         transform="translate(-41.443,-77.665)"
         fill="#3ecc5f"
         fill-rule="evenodd" /><g
         id="Group_8"
         data-name="Group 8"
         transform="matrix(0.966,-0.259,0.259,0.966,51.971,43.3)"><rect
           id="Rectangle_3"
           data-name="Rectangle 3"
           width="43.905998"
           height="17.333"
           rx="2"
           fill="#d8d8d8"
           x="0"
           y="0" /><g
           id="Group_2"
           data-name="Group 2"
           transform="translate(0.728,10.948)"><rect
             id="Rectangle_4"
             data-name="Rectangle 4"
             width="2.5369999"
             height="2.5369999"
             rx="1"
             transform="translate(7.985)"
             fill="#4a4a4a"
             x="0"
             y="0" /><rect
             id="Rectangle_5"
             data-name="Rectangle 5"
             width="2.5369999"
             height="2.5369999"
             rx="1"
             transform="translate(10.991)"
             fill="#4a4a4a"
             x="0"
             y="0" /><rect
             id="Rectangle_6"
             data-name="Rectangle 6"
             width="2.5369999"
             height="2.5369999"
             rx="1"
             transform="translate(13.997)"
             fill="#4a4a4a"
             x="0"
             y="0" /><rect
             id="Rectangle_7"
             data-name="Rectangle 7"
             width="2.5369999"
             height="2.5369999"
             rx="1"
             transform="translate(17.003)"
             fill="#4a4a4a"
             x="0"
             y="0" /><rect
             id="Rectangle_8"
             data-name="Rectangle 8"
             width="2.5369999"
             height="2.5369999"
             rx="1"
             transform="translate(20.009)"
             fill="#4a4a4a"
             x="0"
             y="0" /><rect
             id="Rectangle_9"
             data-name="Rectangle 9"
             width="2.5369999"
             height="2.5369999"
             rx="1"
             transform="translate(23.015)"
             fill="#4a4a4a"
             x="0"
             y="0" /><rect
             id="Rectangle_10"
             data-name="Rectangle 10"
             width="2.5369999"
             height="2.5369999"
             rx="1"
             transform="translate(26.021)"
             fill="#4a4a4a"
             x="0"
             y="0" /><rect
             id="Rectangle_11"
             data-name="Rectangle 11"
             width="2.5369999"
             height="2.5369999"
             rx="1"
             transform="translate(29.028)"
             fill="#4a4a4a"
             x="0"
             y="0" /><rect
             id="Rectangle_12"
             data-name="Rectangle 12"
             width="2.5369999"
             height="2.5369999"
             rx="1"
             transform="translate(32.034)"
             fill="#4a4a4a"
             x="0"
             y="0" /><path
             id="Path_51"
             data-name="Path 51"
             d="M 0.519,0 H 6.9 a 0.519,0.519 0 0 1 0.521,0.52 v 1.5 A 0.519,0.519 0 0 1 6.902,2.539 H 0.519 A 0.519,0.519 0 0 1 0,2.017 V 0.519 A 0.519,0.519 0 0 1 0.519,0 Z m 35.134,0 h 6.383 a 0.519,0.519 0 0 1 0.519,0.519 v 1.5 A 0.519,0.519 0 0 1 42.036,2.538 H 35.652 A 0.519,0.519 0 0 1 35.133,2.019 v -1.5 A 0.519,0.519 0 0 1 35.652,0 Z"
             fill="#4a4a4a"
             fill-rule="evenodd" /></g><g
           id="Group_3"
           data-name="Group 3"
           transform="translate(0.728,4.878)"><path
             id="Path_52"
             data-name="Path 52"
             d="m 0.519,0 h 2.437 a 0.519,0.519 0 0 1 0.519,0.519 v 1.5 A 0.519,0.519 0 0 1 2.956,2.538 H 0.519 A 0.519,0.519 0 0 1 0,2.017 V 0.519 A 0.519,0.519 0 0 1 0.519,0 Z"
             fill="#4a4a4a"
             fill-rule="evenodd" /><rect
             id="Rectangle_13"
             data-name="Rectangle 13"
             width="2.5369999"
             height="2.5369999"
             rx="1"
             transform="translate(3.945)"
             fill="#4a4a4a"
             x="0"
             y="0" /><rect
             id="Rectangle_14"
             data-name="Rectangle 14"
             width="2.5369999"
             height="2.5369999"
             rx="1"
             transform="translate(6.951)"
             fill="#4a4a4a"
             x="0"
             y="0" /><rect
             id="Rectangle_15"
             data-name="Rectangle 15"
             width="2.5369999"
             height="2.5369999"
             rx="1"
             transform="translate(9.958)"
             fill="#4a4a4a"
             x="0"
             y="0" /><rect
             id="Rectangle_16"
             data-name="Rectangle 16"
             width="2.5369999"
             height="2.5369999"
             rx="1"
             transform="translate(12.964)"
             fill="#4a4a4a"
             x="0"
             y="0" /><rect
             id="Rectangle_17"
             data-name="Rectangle 17"
             width="2.5369999"
             height="2.5369999"
             rx="1"
             transform="translate(15.97)"
             fill="#4a4a4a"
             x="0"
             y="0" /><rect
             id="Rectangle_18"
             data-name="Rectangle 18"
             width="2.5369999"
             height="2.5369999"
             rx="1"
             transform="translate(18.976)"
             fill="#4a4a4a"
             x="0"
             y="0" /><rect
             id="Rectangle_19"
             data-name="Rectangle 19"
             width="2.5369999"
             height="2.5369999"
             rx="1"
             transform="translate(21.982)"
             fill="#4a4a4a"
             x="0"
             y="0" /><rect
             id="Rectangle_20"
             data-name="Rectangle 20"
             width="2.5369999"
             height="2.5369999"
             rx="1"
             transform="translate(24.988)"
             fill="#4a4a4a"
             x="0"
             y="0" /><rect
             id="Rectangle_21"
             data-name="Rectangle 21"
             width="2.5369999"
             height="2.5369999"
             rx="1"
             transform="translate(27.994)"
             fill="#4a4a4a"
             x="0"
             y="0" /><rect
             id="Rectangle_22"
             data-name="Rectangle 22"
             width="2.5369999"
             height="2.5369999"
             rx="1"
             transform="translate(31)"
             fill="#4a4a4a"
             x="0"
             y="0" /><rect
             id="Rectangle_23"
             data-name="Rectangle 23"
             width="2.5369999"
             height="2.5369999"
             rx="1"
             transform="translate(34.006)"
             fill="#4a4a4a"
             x="0"
             y="0" /><rect
             id="Rectangle_24"
             data-name="Rectangle 24"
             width="2.5369999"
             height="2.5369999"
             rx="1"
             transform="translate(37.012)"
             fill="#4a4a4a"
             x="0"
             y="0" /><rect
             id="Rectangle_25"
             data-name="Rectangle 25"
             width="2.5369999"
             height="2.5369999"
             rx="1"
             transform="translate(40.018)"
             fill="#4a4a4a"
             x="0"
             y="0" /></g><g
           id="Group_4"
           data-name="Group 4"
           transform="rotate(180,21.6415,2.269)"><path
             id="Path_53"
             data-name="Path 53"
             d="m 0.519,0 h 2.437 a 0.519,0.519 0 0 1 0.519,0.519 v 1.5 A 0.519,0.519 0 0 1 2.956,2.538 H 0.519 A 0.519,0.519 0 0 1 0,2.017 V 0.519 A 0.519,0.519 0 0 1 0.519,0 Z"
             fill="#4a4a4a"
             fill-rule="evenodd" /><rect
             id="Rectangle_26"
             data-name="Rectangle 26"
             width="2.5369999"
             height="2.5369999"
             rx="1"
             transform="translate(3.945)"
             fill="#4a4a4a"
             x="0"
             y="0" /><rect
             id="Rectangle_27"
             data-name="Rectangle 27"
             width="2.5369999"
             height="2.5369999"
             rx="1"
             transform="translate(6.951)"
             fill="#4a4a4a"
             x="0"
             y="0" /><rect
             id="Rectangle_28"
             data-name="Rectangle 28"
             width="2.5369999"
             height="2.5369999"
             rx="1"
             transform="translate(9.958)"
             fill="#4a4a4a"
             x="0"
             y="0" /><rect
             id="Rectangle_29"
             data-name="Rectangle 29"
             width="2.5369999"
             height="2.5369999"
             rx="1"
             transform="translate(12.964)"
             fill="#4a4a4a"
             x="0"
             y="0" /><rect
             id="Rectangle_30"
             data-name="Rectangle 30"
             width="2.5369999"
             height="2.5369999"
             rx="1"
             transform="translate(15.97)"
             fill="#4a4a4a"
             x="0"
             y="0" /><rect
             id="Rectangle_31"
             data-name="Rectangle 31"
             width="2.5369999"
             height="2.5369999"
             rx="1"
             transform="translate(18.976)"
             fill="#4a4a4a"
             x="0"
             y="0" /><rect
             id="Rectangle_32"
             data-name="Rectangle 32"
             width="2.5369999"
             height="2.5369999"
             rx="1"
             transform="translate(21.982)"
             fill="#4a4a4a"
             x="0"
             y="0" /><rect
             id="Rectangle_33"
             data-name="Rectangle 33"
             width="2.5369999"
             height="2.5369999"
             rx="1"
             transform="translate(24.988)"
             fill="#4a4a4a"
             x="0"
             y="0" /><rect
             id="Rectangle_34"
             data-name="Rectangle 34"
             width="2.5369999"
             height="2.5369999"
             rx="1"
             transform="translate(27.994)"
             fill="#4a4a4a"
             x="0"
             y="0" /><rect
             id="Rectangle_35"
             data-name="Rectangle 35"
             width="2.5369999"
             height="2.5369999"
             rx="1"
             transform="translate(31.001)"
             fill="#4a4a4a"
             x="0"
             y="0" /><rect
             id="Rectangle_36"
             data-name="Rectangle 36"
             width="2.5369999"
             height="2.5369999"
             rx="1"
             transform="translate(34.007)"
             fill="#4a4a4a"
             x="0"
             y="0" /><rect
             id="Rectangle_37"
             data-name="Rectangle 37"
             width="2.5369999"
             height="2.5369999"
             rx="1"
             transform="translate(37.013)"
             fill="#4a4a4a"
             x="0"
             y="0" /><rect
             id="Rectangle_38"
             data-name="Rectangle 38"
             width="2.5369999"
             height="2.5369999"
             rx="1"
             transform="translate(40.018)"
             fill="#4a4a4a"
             x="0"
             y="0" /><rect
             id="Rectangle_39"
             data-name="Rectangle 39"
             width="2.5369999"
             height="2.5369999"
             rx="1"
             transform="translate(3.945)"
             fill="#4a4a4a"
             x="0"
             y="0" /><rect
             id="Rectangle_40"
             data-name="Rectangle 40"
             width="2.5369999"
             height="2.5369999"
             rx="1"
             transform="translate(6.951)"
             fill="#4a4a4a"
             x="0"
             y="0" /><rect
             id="Rectangle_41"
             data-name="Rectangle 41"
             width="2.5369999"
             height="2.5369999"
             rx="1"
             transform="translate(9.958)"
             fill="#4a4a4a"
             x="0"
             y="0" /><rect
             id="Rectangle_42"
             data-name="Rectangle 42"
             width="2.5369999"
             height="2.5369999"
             rx="1"
             transform="translate(12.964)"
             fill="#4a4a4a"
             x="0"
             y="0" /><rect
             id="Rectangle_43"
             data-name="Rectangle 43"
             width="2.5369999"
             height="2.5369999"
             rx="1"
             transform="translate(15.97)"
             fill="#4a4a4a"
             x="0"
             y="0" /><rect
             id="Rectangle_44"
             data-name="Rectangle 44"
             width="2.5369999"
             height="2.5369999"
             rx="1"
             transform="translate(18.976)"
             fill="#4a4a4a"
             x="0"
             y="0" /><rect
             id="Rectangle_45"
             data-name="Rectangle 45"
             width="2.5369999"
             height="2.5369999"
             rx="1"
             transform="translate(21.982)"
             fill="#4a4a4a"
             x="0"
             y="0" /><rect
             id="Rectangle_46"
             data-name="Rectangle 46"
             width="2.5369999"
             height="2.5369999"
             rx="1"
             transform="translate(24.988)"
             fill="#4a4a4a"
             x="0"
             y="0" /><rect
             id="Rectangle_47"
             data-name="Rectangle 47"
             width="2.5369999"
             height="2.5369999"
             rx="1"
             transform="translate(27.994)"
             fill="#4a4a4a"
             x="0"
             y="0" /><rect
             id="Rectangle_48"
             data-name="Rectangle 48"
             width="2.5369999"
             height="2.5369999"
             rx="1"
             transform="translate(31.001)"
             fill="#4a4a4a"
             x="0"
             y="0" /><rect
             id="Rectangle_49"
             data-name="Rectangle 49"
             width="2.5369999"
             height="2.5369999"
             rx="1"
             transform="translate(34.007)"
             fill="#4a4a4a"
             x="0"
             y="0" /><rect
             id="Rectangle_50"
             data-name="Rectangle 50"
             width="2.5369999"
             height="2.5369999"
             rx="1"
             transform="translate(37.013)"
             fill="#4a4a4a"
             x="0"
             y="0" /><rect
             id="Rectangle_51"
             data-name="Rectangle 51"
             width="2.5369999"
             height="2.5369999"
             rx="1"
             transform="translate(40.018)"
             fill="#4a4a4a"
             x="0"
             y="0" /></g><g
           id="Group_6"
           data-name="Group 6"
           transform="translate(0.728,7.883)"><path
             id="Path_54"
             data-name="Path 54"
             d="m 0.519,0 h 3.47 a 0.519,0.519 0 0 1 0.519,0.519 v 1.5 A 0.519,0.519 0 0 1 3.989,2.538 H 0.519 A 0.519,0.519 0 0 1 0,2.017 V 0.52 A 0.519,0.519 0 0 1 0.519,0 Z"
             fill="#4a4a4a"
             fill-rule="evenodd" /><g
             id="Group_5"
             data-name="Group 5"
             transform="translate(5.073)"><rect
               id="Rectangle_52"
               data-name="Rectangle 52"
               width="2.5369999"
               height="2.5369999"
               rx="1"
               fill="#4a4a4a"
               x="0"
               y="0" /><rect
               id="Rectangle_53"
               data-name="Rectangle 53"
               width="2.5369999"
               height="2.5369999"
               rx="1"
               transform="translate(3.006)"
               fill="#4a4a4a"
               x="0"
               y="0" /><rect
               id="Rectangle_54"
               data-name="Rectangle 54"
               width="2.5369999"
               height="2.5369999"
               rx="1"
               transform="translate(6.012)"
               fill="#4a4a4a"
               x="0"
               y="0" /><rect
               id="Rectangle_55"
               data-name="Rectangle 55"
               width="2.5369999"
               height="2.5369999"
               rx="1"
               transform="translate(9.018)"
               fill="#4a4a4a"
               x="0"
               y="0" /><rect
               id="Rectangle_56"
               data-name="Rectangle 56"
               width="2.5369999"
               height="2.5369999"
               rx="1"
               transform="translate(12.025)"
               fill="#4a4a4a"
               x="0"
               y="0" /><rect
               id="Rectangle_57"
               data-name="Rectangle 57"
               width="2.5369999"
               height="2.5369999"
               rx="1"
               transform="translate(15.031)"
               fill="#4a4a4a"
               x="0"
               y="0" /><rect
               id="Rectangle_58"
               data-name="Rectangle 58"
               width="2.5369999"
               height="2.5369999"
               rx="1"
               transform="translate(18.037)"
               fill="#4a4a4a"
               x="0"
               y="0" /><rect
               id="Rectangle_59"
               data-name="Rectangle 59"
               width="2.5369999"
               height="2.5369999"
               rx="1"
               transform="translate(21.042)"
               fill="#4a4a4a"
               x="0"
               y="0" /><rect
               id="Rectangle_60"
               data-name="Rectangle 60"
               width="2.5369999"
               height="2.5369999"
               rx="1"
               transform="translate(24.049)"
               fill="#4a4a4a"
               x="0"
               y="0" /><rect
               id="Rectangle_61"
               data-name="Rectangle 61"
               width="2.5369999"
               height="2.5369999"
               rx="1"
               transform="translate(27.055)"
               fill="#4a4a4a"
               x="0"
               y="0" /><rect
               id="Rectangle_62"
               data-name="Rectangle 62"
               width="2.5369999"
               height="2.5369999"
               rx="1"
               transform="translate(30.061)"
               fill="#4a4a4a"
               x="0"
               y="0" /></g><path
             id="Path_55"
             data-name="Path 55"
             d="M 0.52,0 H 3.8 a 0.519,0.519 0 0 1 0.519,0.519 v 1.5 A 0.519,0.519 0 0 1 3.8,2.538 H 0.519 A 0.519,0.519 0 0 1 0,2.017 V 0.52 A 0.519,0.519 0 0 1 0.519,0 Z"
             transform="translate(38.234)"
             fill="#4a4a4a"
             fill-rule="evenodd" /></g><g
           id="Group_7"
           data-name="Group 7"
           transform="translate(0.728,14.084)"><rect
             id="Rectangle_63"
             data-name="Rectangle 63"
             width="2.5369999"
             height="2.5369999"
             rx="1"
             fill="#4a4a4a"
             x="0"
             y="0" /><rect
             id="Rectangle_64"
             data-name="Rectangle 64"
             width="2.5369999"
             height="2.5369999"
             rx="1"
             transform="translate(3.006)"
             fill="#4a4a4a"
             x="0"
             y="0" /><rect
             id="Rectangle_65"
             data-name="Rectangle 65"
             width="2.5369999"
             height="2.5369999"
             rx="1"
             transform="translate(6.012)"
             fill="#4a4a4a"
             x="0"
             y="0" /><rect
             id="Rectangle_66"
             data-name="Rectangle 66"
             width="2.5369999"
             height="2.5369999"
             rx="1"
             transform="translate(9.018)"
             fill="#4a4a4a"
             x="0"
             y="0" /><path
             id="Path_56"
             data-name="Path 56"
             d="M 0.519,0 H 14.981 A 0.519,0.519 0 0 1 15.5,0.519 v 1.5 A 0.519,0.519 0 0 1 14.981,2.538 H 0.519 A 0.519,0.519 0 0 1 0,2.018 V 0.519 A 0.519,0.519 0 0 1 0.519,0 Z m 15.97,0 h 1.874 a 0.519,0.519 0 0 1 0.519,0.519 v 1.5 A 0.519,0.519 0 0 1 18.363,2.538 H 16.489 A 0.519,0.519 0 0 1 15.97,2.019 v -1.5 A 0.519,0.519 0 0 1 16.489,0 Z"
             transform="translate(12.024)"
             fill="#4a4a4a"
             fill-rule="evenodd" /><rect
             id="Rectangle_67"
             data-name="Rectangle 67"
             width="2.5369999"
             height="2.5369999"
             rx="1"
             transform="translate(31.376)"
             fill="#4a4a4a"
             x="0"
             y="0" /><rect
             id="Rectangle_68"
             data-name="Rectangle 68"
             width="2.5369999"
             height="2.5369999"
             rx="1"
             transform="translate(34.382)"
             fill="#4a4a4a"
             x="0"
             y="0" /><rect
             id="Rectangle_69"
             data-name="Rectangle 69"
             width="2.5369999"
             height="2.5369999"
             rx="1"
             transform="translate(40.018)"
             fill="#4a4a4a"
             x="0"
             y="0" /><path
             id="Path_57"
             data-name="Path 57"
             d="M 2.537,0 V 0.561 A 0.519,0.519 0 0 1 2.018,1.08 H 0.519 A 0.519,0.519 0 0 1 0,0.561 V 0 Z"
             transform="rotate(180,19.868,0.54)"
             fill="#4a4a4a" /><path
             id="Path_58"
             data-name="Path 58"
             d="M 2.537,0 V 0.561 A 0.519,0.519 0 0 1 2.018,1.08 H 0.519 A 0.519,0.519 0 0 1 0,0.561 V 0 Z"
             transform="translate(37.2,1.456)"
             fill="#4a4a4a" /></g><rect
           id="Rectangle_70"
           data-name="Rectangle 70"
           width="42.272999"
           height="1.127"
           rx="0.56400001"
           transform="translate(0.915,0.556)"
           fill="#4a4a4a"
           x="0"
           y="0" /><rect
           id="Rectangle_71"
           data-name="Rectangle 71"
           width="2.3699999"
           height="0.75199997"
           rx="0.37599999"
           transform="translate(1.949,0.744)"
           fill="#d8d8d8"
           opacity="0.136"
           x="0"
           y="0" /><rect
           id="Rectangle_72"
           data-name="Rectangle 72"
           width="2.3699999"
           height="0.75199997"
           rx="0.37599999"
           transform="translate(5.193,0.744)"
           fill="#d8d8d8"
           opacity="0.136"
           x="0"
           y="0" /><rect
           id="Rectangle_73"
           data-name="Rectangle 73"
           width="2.3699999"
           height="0.75199997"
           rx="0.37599999"
           transform="translate(7.688,0.744)"
           fill="#d8d8d8"
           opacity="0.136"
           x="0"
           y="0" /><rect
           id="Rectangle_74"
           data-name="Rectangle 74"
           width="2.3699999"
           height="0.75199997"
           rx="0.37599999"
           transform="translate(10.183,0.744)"
           fill="#d8d8d8"
           opacity="0.136"
           x="0"
           y="0" /><rect
           id="Rectangle_75"
           data-name="Rectangle 75"
           width="2.3699999"
           height="0.75199997"
           rx="0.37599999"
           transform="translate(12.679,0.744)"
           fill="#d8d8d8"
           opacity="0.136"
           x="0"
           y="0" /><rect
           id="Rectangle_76"
           data-name="Rectangle 76"
           width="2.3699999"
           height="0.75199997"
           rx="0.37599999"
           transform="translate(15.797,0.744)"
           fill="#d8d8d8"
           opacity="0.136"
           x="0"
           y="0" /><rect
           id="Rectangle_77"
           data-name="Rectangle 77"
           width="2.3699999"
           height="0.75199997"
           rx="0.37599999"
           transform="translate(18.292,0.744)"
           fill="#d8d8d8"
           opacity="0.136"
           x="0"
           y="0" /><rect
           id="Rectangle_78"
           data-name="Rectangle 78"
           width="2.3699999"
           height="0.75199997"
           rx="0.37599999"
           transform="translate(20.788,0.744)"
           fill="#d8d8d8"
           opacity="0.136"
           x="0"
           y="0" /><rect
           id="Rectangle_79"
           data-name="Rectangle 79"
           width="2.3699999"
           height="0.75199997"
           rx="0.37599999"
           transform="translate(23.283,0.744)"
           fill="#d8d8d8"
           opacity="0.136"
           x="0"
           y="0" /><rect
           id="Rectangle_80"
           data-name="Rectangle 80"
           width="2.3699999"
           height="0.75199997"
           rx="0.37599999"
           transform="translate(26.402,0.744)"
           fill="#d8d8d8"
           opacity="0.136"
           x="0"
           y="0" /><rect
           id="Rectangle_81"
           data-name="Rectangle 81"
           width="2.3699999"
           height="0.75199997"
           rx="0.37599999"
           transform="translate(28.897,0.744)"
           fill="#d8d8d8"
           opacity="0.136"
           x="0"
           y="0" /><rect
           id="Rectangle_82"
           data-name="Rectangle 82"
           width="2.3699999"
           height="0.75199997"
           rx="0.37599999"
           transform="translate(31.393,0.744)"
           fill="#d8d8d8"
           opacity="0.136"
           x="0"
           y="0" /><rect
           id="Rectangle_83"
           data-name="Rectangle 83"
           width="2.3699999"
           height="0.75199997"
           rx="0.37599999"
           transform="translate(34.512,0.744)"
           fill="#d8d8d8"
           opacity="0.136"
           x="0"
           y="0" /><rect
           id="Rectangle_84"
           data-name="Rectangle 84"
           width="2.3699999"
           height="0.75199997"
           rx="0.37599999"
           transform="translate(37.007,0.744)"
           fill="#d8d8d8"
           opacity="0.136"
           x="0"
           y="0" /><rect
           id="Rectangle_85"
           data-name="Rectangle 85"
           width="2.3699999"
           height="0.75199997"
           rx="0.37599999"
           transform="translate(39.502,0.744)"
           fill="#d8d8d8"
           opacity="0.136"
           x="0"
           y="0" /></g><path
         id="Path_59"
         data-name="Path 59"
         d="m 123.779,148.389 a 2.583,2.583 0 0 0 -0.332,0.033 c -0.02,-0.078 -0.038,-0.156 -0.06,-0.234 a 2.594,2.594 0 1 0 -2.567,-4.455 q -0.086,-0.088 -0.174,-0.175 a 2.593,2.593 0 1 0 -4.461,-2.569 c -0.077,-0.022 -0.154,-0.04 -0.231,-0.06 a 2.6,2.6 0 1 0 -5.128,0 c -0.077,0.02 -0.154,0.038 -0.231,0.06 a 2.594,2.594 0 1 0 -4.461,2.569 10.384,10.384 0 1 0 17.314,9.992 2.592,2.592 0 1 0 0.332,-5.161"
         transform="translate(-51.054,-75.262)"
         fill="#44d860"
         fill-rule="evenodd" /><path
         id="Path_60"
         data-name="Path 60"
         d="m 83,113.389 h 20.779 V 103 H 83 Z"
         transform="translate(-41.443,-58.444)"
         fill="#3ecc5f"
         fill-rule="evenodd" /><path
         id="Path_61"
         data-name="Path 61"
         d="m 123.389,108.944 a 1.3,1.3 0 1 0 0,-2.6 1.338,1.338 0 0 0 -0.166,0.017 c -0.01,-0.039 -0.019,-0.078 -0.03,-0.117 a 1.3,1.3 0 0 0 -0.5,-2.5 1.285,1.285 0 0 0 -0.783,0.269 q -0.043,-0.044 -0.087,-0.087 a 1.285,1.285 0 0 0 0.263,-0.776 1.3,1.3 0 0 0 -2.493,-0.509 5.195,5.195 0 1 0 0,10 1.3,1.3 0 0 0 2.493,-0.509 1.285,1.285 0 0 0 -0.263,-0.776 q 0.044,-0.043 0.087,-0.087 a 1.285,1.285 0 0 0 0.783,0.269 1.3,1.3 0 0 0 0.5,-2.5 c 0.011,-0.038 0.02,-0.078 0.03,-0.117 a 1.335,1.335 0 0 0 0.166,0.017"
         transform="translate(-55.859,-57.894)"
         fill="#44d860"
         fill-rule="evenodd" /><path
         id="Path_62"
         data-name="Path 62"
         d="m 141.8,38.745 a 1.41,1.41 0 0 1 -0.255,-0.026 1.309,1.309 0 0 1 -0.244,-0.073 1.349,1.349 0 0 1 -0.224,-0.119 1.967,1.967 0 0 1 -0.2,-0.161 1.52,1.52 0 0 1 -0.161,-0.2 1.282,1.282 0 0 1 -0.218,-0.722 1.41,1.41 0 0 1 0.026,-0.255 1.5,1.5 0 0 1 0.072,-0.244 1.364,1.364 0 0 1 0.12,-0.223 1.252,1.252 0 0 1 0.358,-0.358 1.349,1.349 0 0 1 0.224,-0.119 1.309,1.309 0 0 1 0.244,-0.073 1.2,1.2 0 0 1 0.509,0 1.262,1.262 0 0 1 0.468,0.192 1.968,1.968 0 0 1 0.2,0.161 1.908,1.908 0 0 1 0.161,0.2 1.322,1.322 0 0 1 0.12,0.223 1.361,1.361 0 0 1 0.1,0.5 1.317,1.317 0 0 1 -0.379,0.919 1.968,1.968 0 0 1 -0.2,0.161 1.346,1.346 0 0 1 -0.223,0.119 1.332,1.332 0 0 1 -0.5,0.1 m 10.389,-0.649 a 1.326,1.326 0 0 1 -0.92,-0.379 1.979,1.979 0 0 1 -0.161,-0.2 1.282,1.282 0 0 1 -0.218,-0.722 1.326,1.326 0 0 1 0.379,-0.919 1.967,1.967 0 0 1 0.2,-0.161 1.351,1.351 0 0 1 0.224,-0.119 1.308,1.308 0 0 1 0.244,-0.073 1.2,1.2 0 0 1 0.509,0 1.262,1.262 0 0 1 0.468,0.192 1.967,1.967 0 0 1 0.2,0.161 1.326,1.326 0 0 1 0.379,0.919 1.461,1.461 0 0 1 -0.026,0.255 1.323,1.323 0 0 1 -0.073,0.244 1.847,1.847 0 0 1 -0.119,0.223 1.911,1.911 0 0 1 -0.161,0.2 1.967,1.967 0 0 1 -0.2,0.161 1.294,1.294 0 0 1 -0.722,0.218"
         transform="translate(-69.074,-26.006)"
         fill-rule="evenodd" /></g><g
       id="React-icon"
       transform="translate(906.3,541.56)"
       style="display:none"><path
         id="Path_330"
         data-name="Path 330"
         d="m 263.668,117.179 c 0,-5.827 -7.3,-11.35 -18.487,-14.775 2.582,-11.4 1.434,-20.477 -3.622,-23.382 a 7.861,7.861 0 0 0 -4.016,-1 v 4 a 4.152,4.152 0 0 1 2.044,0.466 c 2.439,1.4 3.5,6.724 2.672,13.574 -0.2,1.685 -0.52,3.461 -0.914,5.272 A 86.9,86.9 0 0 0 229.959,99.38 87.469,87.469 0 0 0 222.5,90.415 c 5.845,-5.433 11.332,-8.41 15.062,-8.41 V 78 78 c -4.931,0 -11.386,3.514 -17.913,9.611 -6.527,-6.061 -12.982,-9.539 -17.913,-9.539 v 4 c 3.712,0 9.216,2.959 15.062,8.356 a 84.687,84.687 0 0 0 -7.405,8.947 83.732,83.732 0 0 0 -11.4,1.972 c -0.412,-1.793 -0.717,-3.532 -0.932,-5.2 -0.843,-6.85 0.2,-12.175 2.618,-13.592 a 3.991,3.991 0 0 1 2.062,-0.466 v -4 0 a 8,8 0 0 0 -4.052,1 c -5.039,2.9 -6.168,11.96 -3.568,23.328 -11.153,3.443 -18.415,8.947 -18.415,14.757 0,5.828 7.3,11.35 18.487,14.775 -2.582,11.4 -1.434,20.477 3.622,23.382 a 7.882,7.882 0 0 0 4.034,1 c 4.931,0 11.386,-3.514 17.913,-9.611 6.527,6.061 12.982,9.539 17.913,9.539 a 8,8 0 0 0 4.052,-1 c 5.039,-2.9 6.168,-11.96 3.568,-23.328 11.111,-3.42 18.373,-8.943 18.373,-14.752 z m -23.346,-11.96 c -0.663,2.313 -1.488,4.7 -2.421,7.083 -0.735,-1.434 -1.506,-2.869 -2.349,-4.3 -0.825,-1.434 -1.7,-2.833 -2.582,-4.2 2.547,0.377 5.004,0.843 7.353,1.417 z m -8.212,19.1 c -1.4,2.421 -2.833,4.716 -4.321,6.85 -2.672,0.233 -5.379,0.359 -8.1,0.359 -2.708,0 -5.415,-0.126 -8.069,-0.341 q -2.232,-3.2 -4.339,-6.814 -2.044,-3.523 -3.73,-7.136 c 1.112,-2.4 2.367,-4.805 3.712,-7.154 1.4,-2.421 2.833,-4.716 4.321,-6.85 2.672,-0.233 5.379,-0.359 8.1,-0.359 2.708,0 5.415,0.126 8.069,0.341 q 2.232,3.2 4.339,6.814 2.044,3.523 3.73,7.136 c -1.13,2.399 -2.367,4.801 -3.712,7.15 z m 5.792,-2.331 c 0.968,2.4 1.793,4.805 2.474,7.136 -2.349,0.574 -4.823,1.058 -7.387,1.434 0.879,-1.381 1.757,-2.8 2.582,-4.25 0.829,-1.437 1.596,-2.889 2.329,-4.324 z m -18.182,19.128 a 73.921,73.921 0 0 1 -4.985,-5.738 c 1.614,0.072 3.263,0.126 4.931,0.126 1.685,0 3.353,-0.036 4.985,-0.126 a 69.993,69.993 0 0 1 -4.931,5.738 z m -13.34,-10.561 c -2.546,-0.377 -5,-0.843 -7.352,-1.417 0.663,-2.313 1.488,-4.7 2.421,-7.083 0.735,1.434 1.506,2.869 2.349,4.3 0.843,1.431 1.702,2.837 2.582,4.2 z m 13.25,-37.314 a 73.924,73.924 0 0 1 4.985,5.738 c -1.614,-0.072 -3.263,-0.126 -4.931,-0.126 -1.686,0 -3.353,0.036 -4.985,0.126 a 69.993,69.993 0 0 1 4.931,-5.738 z M 206.362,103.8 c -0.879,1.381 -1.757,2.8 -2.582,4.25 -0.825,1.434 -1.6,2.869 -2.331,4.3 -0.968,-2.4 -1.793,-4.805 -2.474,-7.136 2.348,-0.551 4.825,-1.035 7.387,-1.414 z m -16.227,22.449 c -6.348,-2.708 -10.454,-6.258 -10.454,-9.073 0,-2.815 4.106,-6.383 10.454,-9.073 1.542,-0.663 3.228,-1.255 4.967,-1.811 a 86.122,86.122 0 0 0 4.034,10.92 84.9,84.9 0 0 0 -3.981,10.866 c -1.775,-0.553 -3.461,-1.163 -5.021,-1.826 z m 9.647,25.623 c -2.439,-1.4 -3.5,-6.724 -2.672,-13.574 0.2,-1.686 0.52,-3.461 0.914,-5.272 a 86.9,86.9 0 0 0 11.386,1.954 87.465,87.465 0 0 0 7.459,8.965 c -5.845,5.433 -11.332,8.41 -15.062,8.41 a 4.279,4.279 0 0 1 -2.026,-0.48 z m 42.532,-13.663 c 0.843,6.85 -0.2,12.175 -2.618,13.592 a 3.99,3.99 0 0 1 -2.062,0.466 c -3.712,0 -9.216,-2.959 -15.062,-8.356 a 84.689,84.689 0 0 0 7.405,-8.947 83.731,83.731 0 0 0 11.4,-1.972 50.194,50.194 0 0 1 0.936,5.22 z m 6.9,-11.96 c -1.542,0.663 -3.228,1.255 -4.967,1.811 a 86.12,86.12 0 0 0 -4.034,-10.92 84.9,84.9 0 0 0 3.981,-10.866 c 1.775,0.556 3.461,1.165 5.039,1.829 6.348,2.708 10.454,6.258 10.454,9.073 -0.017,2.818 -4.123,6.386 -10.471,9.076 z"
         fill="#61dafb" /><path
         id="Path_331"
         data-name="Path 331"
         d="M 320.8,78.4 Z"
         transform="translate(-119.082,-0.328)"
         fill="#61dafb" /><circle
         id="Ellipse_112"
         data-name="Ellipse 112"
         cx="8.1940002"
         cy="8.1940002"
         r="8.1940002"
         transform="translate(211.472,108.984)"
         fill="#61dafb" /><path
         id="Path_332"
         data-name="Path 332"
         d="M 520.5,78.1 Z"
         transform="translate(-282.975,-0.082)"
         fill="#61dafb" /></g></g><g
     inkscape:groupmode="layer"
     id="layer1"
     inkscape:label="wombat"
     style="display:inline"><g
       style="fill:#7d5c0a;fill-opacity:1;stroke:none;stroke-opacity:1"
       id="g711"
       transform="matrix(0.33802696,0,0,0.29359988,198.75397,188.60466)"><g
         id="g692"
         style="fill:#7d5c0a;fill-opacity:1;stroke:none;stroke-opacity:1">
	<g
   id="g690"
   style="fill:#7d5c0a;fill-opacity:1;stroke:none;stroke-opacity:1">
		<path
   d="m 511.955,286.874 c -0.105,-1.016 -2.7,-25.204 -12.317,-52.426 -13.125,-37.155 -32.331,-61.1 -57.091,-71.22 -6.982,-11.746 -19.905,-26.735 -42.528,-33.804 -4.334,-1.352 -8.954,1.03 -10.359,5.349 -0.112,0.343 -1.018,3.207 -1.924,7.962 -2.561,-1.107 -5.646,-2.25 -9.28,-3.282 -14.842,-4.213 -31.946,-4.818 -50.867,-1.808 -10.161,-3.685 -54.353,-18.796 -114.81,-26.229 -60.724,-7.467 -113.65,11.203 -157.312,55.488 -34.232,34.722 -31.745,72.52 -29.746,102.893 0.421,6.397 0.818,12.438 0.818,17.937 0,28.563 -24.868,65.759 -25.117,66.128 -1.981,2.929 -1.885,6.793 0.236,9.622 l 19.881,26.508 c 5.727,7.637 14.846,12.196 24.392,12.196 h 15.442 c 4.58,0 8.294,-3.713 8.294,-8.294 0,-4.58 -3.713,-8.294 -8.294,-8.294 h -7.74 c 7.939,-6.62 19.31,-16.614 31.353,-28.887 5.62,-5.727 10.839,-11.386 15.656,-16.97 3.134,17.624 4.543,35.716 5.145,46.279 0.518,9.065 8.053,16.165 17.154,16.165 h 44.592 c 4.58,0 8.294,-3.713 8.294,-8.294 0,-4.58 -3.713,-8.294 -8.294,-8.294 h -14.401 c 10.668,-29.442 13.199,-53.663 13.717,-60.291 4.919,0.337 9.789,0.5 14.566,0.5 29.249,0 55.054,-5.711 67.931,-9.651 6.651,26.788 31.456,75.313 34.67,81.54 1.423,2.758 4.266,4.49 7.37,4.49 h 44.233 c 4.58,0 8.294,-3.713 8.294,-8.294 0,-4.58 -3.713,-8.294 -8.294,-8.294 h -13.708 c 5.2,-11.833 13.285,-31.023 20.129,-50.697 1.453,-0.257 3.574,-0.697 6.183,-1.402 17.603,37.316 51.382,65.543 52.883,66.783 1.486,1.23 3.356,1.902 5.285,1.902 h 35.387 c 4.58,0 8.294,-3.713 8.294,-8.294 0,-4.58 -3.713,-8.294 -8.294,-8.294 h -13.374 c -5.699,-9.391 -9.974,-26.826 -12.15,-49.894 -1.004,-10.64 -1.391,-20.598 -1.53,-27.784 4.913,2.584 10.469,4.545 16.746,5.67 18.984,3.4 32.346,5.618 40.212,6.878 1.511,0.242 3.02,0.36 4.521,0.36 9.501,0 18.567,-4.74 23.938,-12.796 l 10.466,-15.698 c 1.072,-1.607 1.548,-3.537 1.348,-5.459 z m -376.554,98.725 h -12.459 c -0.332,0 -0.575,-0.215 -0.593,-0.523 -0.785,-13.749 -2.894,-39.788 -8.254,-62.153 1.874,-2.548 3.664,-5.079 5.358,-7.592 10.067,3.875 20.492,6.478 30.898,8.123 -0.355,4.73 -2.82,31.171 -14.95,62.145 z m 274.089,0 c -7.433,-6.615 -31.952,-29.715 -45.663,-57.906 10.553,-5.012 23.048,-13.278 34.219,-26.8 -0.065,14.816 0.777,57.794 11.904,84.706 z m 76.85,-86.768 c -2.63,3.944 -7.352,6.007 -12.031,5.258 -7.798,-1.251 -21.053,-3.449 -39.913,-6.827 -13.374,-2.396 -23.491,-10.209 -30.069,-23.224 -5.406,-10.697 -7.333,-22.789 -7.333,-30.54 0,-4.58 -3.713,-8.294 -8.294,-8.294 -4.58,0 -8.294,3.713 -8.294,8.294 0,10.424 2.619,25.906 10.142,39.772 -13.874,20.554 -31.581,29.341 -42.505,32.998 1.835,-6.272 3.4,-12.365 4.552,-18.041 0.911,-4.489 -1.989,-8.867 -6.479,-9.777 -4.485,-0.908 -8.867,1.989 -9.777,6.479 -6.203,30.571 -25.977,75.965 -32.593,90.668 h -7.283 c -13.319,-26.327 -32.169,-67.865 -32.169,-80.173 0,-14.478 7.98,-31.69 8.057,-31.856 1.951,-4.143 0.171,-9.086 -3.973,-11.035 -4.146,-1.953 -9.086,-0.171 -11.035,3.973 -0.348,0.74 -7.631,16.391 -9.296,32.623 -14.284,5.133 -71.864,18.804 -119.755,1.783 5.461,-9.914 9.432,-19.512 11.873,-28.757 1.17,-4.429 -1.472,-8.967 -5.901,-10.137 -4.429,-1.168 -8.967,1.472 -10.137,5.901 -13.256,50.184 -77.613,102.408 -89.579,111.767 L 18.371,358.117 c 7.373,-12.034 24.755,-43.28 24.755,-70.386 0,-6.042 -0.415,-12.349 -0.854,-19.026 -1.873,-28.471 -3.998,-60.74 25.006,-90.158 19.239,-19.514 40.501,-33.715 63.195,-42.207 24.469,-9.157 51.478,-12.003 80.28,-8.463 65.543,8.058 112.583,25.873 113.047,26.051 1.397,0.536 2.911,0.682 4.383,0.43 34.521,-5.969 53.122,3.269 57.674,5.989 -0.26,9.194 0.518,20.259 3.669,32.19 0.983,3.719 4.34,6.177 8.014,6.177 0.701,0 1.413,-0.09 2.123,-0.276 4.429,-1.17 7.071,-5.708 5.901,-10.137 -4.311,-16.317 -3.364,-30.886 -1.999,-39.675 23.398,11.435 29.907,34.026 30.209,35.116 1.194,4.407 5.727,7.023 10.142,5.844 2.188,-0.583 3.935,-1.99 5.002,-3.799 33.962,25.37 44.226,85.992 46.168,99.922 z"
   id="path688"
   style="fill:#7d5c0a;fill-opacity:1;stroke:none;stroke-opacity:1" />
	</g>
</g><g
         id="g698"
         style="fill:#7d5c0a;fill-opacity:1;stroke:none;stroke-opacity:1">
	<g
   id="g696"
   style="fill:#7d5c0a;fill-opacity:1;stroke:none;stroke-opacity:1">
		<path
   d="m 465.002,236.864 c -5.895,0 -10.69,4.795 -10.69,10.69 10e-4,5.895 4.796,10.69 10.69,10.69 5.894,0 10.69,-4.796 10.69,-10.69 0,-5.896 -4.795,-10.69 -10.69,-10.69 z"
   id="path694"
   style="fill:#7d5c0a;fill-opacity:1;stroke:none;stroke-opacity:1" />
	</g>
</g></g></g><g
     inkscape:groupmode="layer"
     id="layer2"
     inkscape:label="sloth"
     style="display:inline"><g
       style="fill:#eaac26;fill-opacity:1"
       id="g1459"
       transform="matrix(0.30592532,0,0,0.29475126,762.28685,92.429813)"><g
         id="g1440"
         style="fill:#eaac26;fill-opacity:1">
	<g
   id="g1438"
   style="fill:#eaac26;fill-opacity:1">
		<path
   d="m 456.982,329.814 c -6.25,0 -11.335,5.085 -11.335,11.335 0,6.251 5.085,11.335 11.335,11.335 6.25,0 11.335,-5.085 11.335,-11.335 0,-6.25 -5.085,-11.335 -11.335,-11.335 z"
   id="path1436"
   style="fill:#eaac26;fill-opacity:1" />
	</g>
</g><g
         id="g1446"
         style="fill:#eaac26;fill-opacity:1">
	<g
   id="g1444"
   style="fill:#eaac26;fill-opacity:1">
		<path
   d="m 392.885,219.305 c 2.294,-11.936 11.799,-62.235 15.013,-92.169 2.447,0.012 4.89,0.036 7.34,0.036 1.055,0 2.1,-0.201 3.08,-0.593 l 88.466,-35.386 c 4.253,-1.702 6.322,-6.528 4.621,-10.781 -1.702,-4.254 -6.531,-6.321 -10.781,-4.621 l -57.706,23.083 22.574,-27.052 42.475,-25.449 c 3.93,-2.354 5.206,-7.448 2.852,-11.377 -2.354,-3.931 -7.45,-5.205 -11.377,-2.852 l -43.68,26.171 c -0.798,0.479 -1.509,1.086 -2.105,1.8 l -42.106,50.455 c -0.867,-0.002 -1.731,-0.012 -2.596,-0.015 -0.011,-0.589 -0.032,-1.148 -0.065,-1.66 -0.126,-1.944 -0.422,-6.498 -4.076,-9.308 -6.429,-4.947 -21.266,-7.904 -33.107,-4.42 -7.67,2.256 -10.667,6.609 -11.829,9.863 -0.258,0.721 -0.844,2.251 -1.699,4.434 -17.367,-0.679 -34.534,-1.674 -51.421,-2.971 0.333,-0.612 0.54,-0.964 0.556,-0.992 1.786,-2.928 1.585,-6.656 -0.508,-9.375 -1.023,-1.328 -10.636,-12.98 -33.431,-12.077 -8.391,0.323 -15.834,6.012 -22.255,16.95 -8.549,-1.037 -17.042,-2.152 -25.459,-3.358 -0.209,-5.54 -2.233,-10.285 -7.286,-13.443 -8.256,-5.16 -18.301,-6.8 -26.868,-4.392 -4.301,1.21 -9.827,3.891 -14.889,9.701 -6.328,-1.196 -12.6,-2.437 -18.805,-3.73 0.506,-1.766 0.428,-3.699 -0.323,-5.492 -0.389,-0.931 -9.827,-22.782 -34.189,-22.782 -10.353,0 -19.393,4.526 -27.782,13.09 C 40.903,55.154 12.395,40.886 12.047,40.711 7.968,38.641 2.975,40.269 0.901,44.351 c -2.075,4.084 -0.446,9.077 3.638,11.15 1.18,0.599 27.835,14 79.917,29.18 -10.398,15.926 -20.185,38.468 -30.839,66.651 -8.029,21.241 -16.824,37.602 -25.329,53.426 -15.179,28.238 -28.286,52.626 -28.286,91.053 0,30.768 14.089,77.46 53.631,116.227 21.395,20.976 47.964,37.469 78.971,49.02 35.582,13.255 77.098,19.977 123.395,19.977 66.897,0 124.177,-12.635 170.248,-37.555 43.497,-23.527 65.504,-52.065 74.754,-66.983 8.666,-13.98 8.188,-31.963 -1.218,-45.813 -6.527,-9.613 -6.264,-13.391 -6.217,-13.761 4.4,-9.551 1.603,-23.617 -6.389,-32.073 -7.172,-7.587 -17.231,-9.923 -27.944,-6.597 -19.078,-4.339 -46.133,12.865 -68.101,26.839 l -2.893,1.838 c -4.658,2.954 -10.432,3.522 -15.615,1.669 1.653,-4.954 3.843,-12.86 6.91,-25.85 4.017,-17.016 8.759,-39.548 13.351,-63.444 z M 300.196,122.62 c 16.899,1.367 34.089,2.427 51.483,3.179 -9.479,23.599 -25.002,61.592 -35.613,86.052 -3.486,-13.442 -7.763,-25.374 -11.326,-35.313 -2.163,-6.034 -4.032,-11.246 -5.416,-15.825 -4.208,-13.916 -2.187,-27.751 0.872,-38.093 z m -85.705,12.057 c 0.717,-1.793 1.519,-3.709 2.352,-5.696 2.007,-4.79 4.155,-9.928 5.833,-15.009 7.009,1.008 14.069,1.953 21.17,2.846 -0.854,2.322 -1.684,4.762 -2.489,7.328 -6.577,20.987 -10.711,48.015 -11.342,74.154 -0.483,20.072 -4.042,37.609 -9.099,52.644 -2.71,-1.516 -5.522,-2.895 -8.414,-4.134 0.081,-5.166 -0.016,-13.54 -0.174,-25.901 -0.324,-25.424 -0.998,-78.33 2.163,-86.232 z M 184.534,107.84 c 7.081,1.264 14.239,2.455 21.443,3.598 -1.548,4.246 -3.309,8.452 -4.432,11.133 -0.869,2.075 -1.706,4.074 -2.455,5.945 -3.71,9.273 -4.037,38.462 -3.347,92.605 0.092,7.196 0.186,14.524 0.199,20.073 -18.343,-4.846 -37.119,-5.942 -49.074,-6.495 0.063,-1.985 0.1,-3.671 0.119,-4.929 0.232,-15.187 -0.56,-30.2 -2.229,-43.708 3.814,-8.739 15.988,-32.195 25.867,-51.228 5.347,-10.3 10.416,-20.068 13.909,-26.994 z m -38.545,-7.62 c 7.1,1.543 14.287,3.023 21.554,4.441 -3.239,6.343 -7.352,14.265 -11.642,22.532 -5.685,10.952 -11.462,22.083 -16.279,31.569 -4.856,-20.182 -3.902,-37.752 2.878,-52.238 1.114,-2.377 2.305,-4.465 3.489,-6.304 z m 251.132,220.719 2.914,-1.851 c 15.765,-10.025 45.111,-28.688 56.495,-24.369 1.944,0.738 4.092,0.718 6.021,-0.054 5.409,-2.165 9.521,-1.649 12.572,1.581 3.941,4.167 4.639,11.036 3.372,13.752 -3.51,7.523 -1.034,17.337 7.567,30.006 5.732,8.44 6.06,19.333 0.84,27.756 -8.379,13.516 -28.425,39.431 -68.544,61.131 -43.62,23.595 -98.246,35.558 -162.357,35.558 -44.314,0 -83.882,-6.371 -117.605,-18.934 C 109.582,434.781 84.97,419.533 65.248,400.195 29.373,365.022 16.591,323.212 16.591,295.811 c 0,-34.253 11.61,-55.853 26.31,-83.2 8.351,-15.538 17.817,-33.149 26.235,-55.412 22.315,-59.028 38.009,-83.105 54.168,-83.105 7.872,0 13.003,4.322 15.904,7.907 -9.804,10.383 -27.211,36.509 -15.085,83.196 9.946,38.292 6.469,97.493 0.609,109.211 -2.049,4.097 -0.389,9.079 3.709,11.127 4.098,2.051 9.08,0.388 11.128,-3.708 3.495,-6.991 5.349,-19.363 6.332,-30.567 15.805,0.734 48.184,2.71 68.884,15.309 -8.584,18.999 -19.094,32.791 -26.857,41.37 -3.073,3.397 -2.811,8.641 0.585,11.715 3.396,3.072 8.641,2.811 11.715,-0.585 16.68,-18.436 44.886,-58.589 46.375,-120.371 0.594,-24.655 4.453,-50.021 10.587,-69.593 7.244,-23.109 14.602,-28.393 16.826,-28.479 7.517,-0.279 12.564,1.291 15.684,2.874 -5.328,11.433 -14.097,36.051 -6.247,62.012 1.505,4.979 3.532,10.635 5.678,16.62 11.817,32.959 29.671,82.767 3.64,136.607 -1.995,4.124 -0.268,9.083 3.856,11.077 1.163,0.563 2.393,0.829 3.604,0.829 3.082,0 6.042,-1.726 7.473,-4.685 3.585,-7.413 6.419,-14.763 8.617,-22.015 0.521,0.103 1.058,0.159 1.61,0.159 10.996,0 36.045,13.522 44.276,17.966 11.032,5.962 24.415,5.525 34.914,-1.131 z m -39.439,-19.932 c -17.094,-8.573 -28.797,-12.745 -37.421,-13.392 3.045,-16.748 2.969,-32.798 1.19,-47.702 8.655,-16.684 35.474,-82.489 47.829,-113.453 7.293,0.226 14.62,0.384 21.965,0.501 -1.947,17.002 -6.32,45.122 -13.297,82.101 -8.449,44.781 -16.147,78.401 -20.266,91.945 z"
   id="path1442"
   style="fill:#eaac26;fill-opacity:1" />
	</g>
</g></g></g><g
     inkscape:groupmode="layer"
     id="layer3"
     inkscape:label="maps"
     style="display:inline"><g
       style="display:inline;fill:#75f13f;fill-opacity:1"
       id="g381"
       transform="matrix(0.26464925,0,0,0.26464925,210.49433,325.66777)"><g
         id="g362"
         style="fill:#75f13f;fill-opacity:1">
	<g
   id="g360"
   style="fill:#75f13f;fill-opacity:1">
		<path
   d="m 439.909,285.384 -28.449,10.685 27.45,73.09 73.09,-27.45 -10.684,-28.45 -27.683,10.397 c 6.37,-21.832 9.603,-44.473 9.603,-67.656 0,-64.538 -25.134,-125.214 -70.768,-170.85 C 366.833,39.514 306.157,14.382 241.618,14.382 177.079,14.382 116.404,39.515 70.768,85.149 25.133,130.785 0,191.461 0,256 c 0,64.539 25.133,125.214 70.768,170.85 45.636,45.636 106.311,70.768 170.85,70.768 64.539,0 125.213,-25.133 170.85,-70.768 L 390.979,405.361 C 351.082,445.257 298.038,467.228 241.618,467.228 125.147,467.228 30.39,372.471 30.39,256 c 0,-116.471 94.757,-211.228 211.228,-211.228 116.471,0 211.229,94.757 211.229,211.228 0,16.627 -1.903,32.931 -5.652,48.783 z"
   id="path358"
   style="fill:#75f13f;fill-opacity:1" />
	</g>
</g><g
         id="g368"
         style="fill:#75f13f;fill-opacity:1">
	<g
   id="g366"
   style="fill:#75f13f;fill-opacity:1">
		<path
   d="m 241.618,91.428 c -90.746,0 -164.572,73.826 -164.572,164.572 0,90.746 73.826,164.572 164.572,164.572 90.746,0 164.572,-73.826 164.572,-164.572 0,-90.746 -73.826,-164.572 -164.572,-164.572 z M 121.37,196.506 h 39.921 c -3.118,14.434 -5.166,29.403 -6.003,44.299 h -46.987 c 1.783,-15.747 6.301,-30.675 13.069,-44.299 z m 10e-4,118.988 c -6.768,-13.624 -11.286,-28.551 -13.069,-44.299 h 46.987 c 0.837,14.895 2.885,29.864 6.003,44.299 z m 20.706,30.39 h 27.669 c 2.055,5.924 4.296,11.661 6.731,17.132 2.189,4.919 4.497,9.535 6.908,13.86 -15.712,-7.601 -29.725,-18.178 -41.308,-30.992 z m 34.401,-196.899 c -2.434,5.471 -4.675,11.208 -6.731,17.132 h -27.669 c 11.583,-12.814 25.596,-23.392 41.308,-30.992 -2.411,4.324 -4.72,8.94 -6.908,13.86 z m 49.945,234.525 c -7.806,-6.614 -15.532,-17.911 -22.18,-32.85 -0.695,-1.562 -1.371,-3.16 -2.032,-4.777 h 24.212 z m 0,-68.016 h -33.912 c -3.48,-14.294 -5.799,-29.4 -6.759,-44.299 h 40.671 z m 0,-74.689 h -40.671 c 0.959,-14.899 3.28,-30.004 6.759,-44.299 h 33.912 z m 0,-74.69 h -24.212 c 0.661,-1.619 1.337,-3.215 2.032,-4.777 6.647,-14.939 14.374,-26.235 22.18,-32.85 z m 135.442,30.391 c 6.768,13.624 11.286,28.551 13.069,44.299 h -45.963 c -0.861,-14.873 -2.965,-29.842 -6.169,-44.299 z m -20.707,-30.39 h -27.013 c -2.112,-5.955 -4.415,-11.727 -6.916,-17.237 -2.167,-4.772 -4.442,-9.262 -6.814,-13.474 15.482,7.58 29.301,18.051 40.743,30.711 z m -84.345,-37.748 c 7.969,6.612 15.897,17.991 22.745,33.076 0.694,1.529 1.368,3.092 2.029,4.673 h -24.774 z m 22.745,222.188 c -6.848,15.085 -14.775,26.465 -22.745,33.076 v -37.748 h 24.774 c -0.662,1.58 -1.335,3.143 -2.029,4.672 z m 11.983,-35.062 h -34.728 v -44.299 h 41.691 c -0.991,14.872 -3.38,29.98 -6.963,44.299 z m -34.728,-74.689 v -44.299 h 34.728 c 3.583,14.319 5.973,29.427 6.963,44.299 z m 43.601,135.789 c 2.372,-4.212 4.649,-8.702 6.814,-13.474 2.502,-5.51 4.805,-11.281 6.916,-17.237 h 27.013 c -11.441,12.66 -25.26,23.131 -40.743,30.711 z m 22.389,-61.1 c 3.203,-14.457 5.307,-29.427 6.168,-44.299 h 45.964 c -1.783,15.747 -6.301,30.675 -13.069,44.299 z"
   id="path364"
   style="fill:#75f13f;fill-opacity:1" />
	</g>
</g></g><g
       style="fill:#f7f805;fill-opacity:0.922747"
       id="g1802"
       transform="matrix(0.21568143,0,0,0.21568143,633.93961,338.88026)"><g
         id="g1783"
         style="fill:#f7f805;fill-opacity:0.922747">
	<g
   id="g1781"
   style="fill:#f7f805;fill-opacity:0.922747">
		<path
   d="M 499.206,76.028 C 499.206,34.106 465.099,0 423.178,0 388.527,0 359.236,23.312 350.112,55.069 319.37,41.21 285.796,33.954 251.817,33.954 c -63.846,0 -123.869,24.862 -169.014,70.008 -45.145,45.146 -70.008,105.168 -70.008,169.014 0,63.846 24.862,123.869 70.008,169.015 45.146,45.147 105.169,70.009 169.014,70.009 63.845,0 123.869,-24.862 169.014,-70.008 45.145,-45.146 70.008,-105.169 70.008,-169.015 0,-37.917 -9.034,-75.33 -26.197,-108.863 17.062,-21.83 34.564,-52.812 34.564,-88.086 z M 183.72,75.796 c -8.177,11.209 -15.762,24.546 -22.599,39.91 -4.217,9.477 -8.069,19.593 -11.528,30.155 H 86.536 c 24.639,-31.962 58.32,-56.606 97.184,-70.065 z M 67.024,176.279 h 73.992 c -6.316,26.391 -10.258,54.338 -11.347,81.49 h -85.9 c 2.116,-29.233 10.287,-56.809 23.255,-81.49 z m 0,193.397 C 54.056,344.993 45.885,317.417 43.769,288.185 h 85.9 c 1.089,27.151 5.031,55.099 11.347,81.491 z m 19.512,30.416 h 63.057 c 3.459,10.563 7.311,20.678 11.528,30.155 6.837,15.365 14.422,28.702 22.599,39.91 -38.864,-13.458 -72.545,-38.102 -97.184,-70.065 z m 150.072,77.876 c -17.023,-7.971 -33.819,-28.898 -47.696,-60.086 -2.532,-5.689 -4.915,-11.64 -7.155,-17.789 h 54.851 z m 0,-108.292 h -64.271 c -6.787,-26.081 -11.05,-54.171 -12.223,-81.491 h 76.494 z m 0,-111.908 h -76.494 c 1.173,-27.32 5.436,-55.41 12.223,-81.49 h 64.271 z m 0,-111.907 h -54.851 c 2.239,-6.149 4.623,-12.1 7.155,-17.789 13.877,-31.189 30.673,-52.116 47.696,-60.087 z M 423.178,30.417 c 25.15,0 45.611,20.461 45.611,45.611 0,38.911 -29.849,73.359 -45.61,88.834 -14.031,-13.779 -39.201,-42.573 -44.575,-76.166 -0.014,-0.092 -0.029,-0.184 -0.044,-0.276 -0.156,-0.997 -0.291,-1.999 -0.412,-3.004 -0.028,-0.243 -0.057,-0.486 -0.084,-0.729 -0.097,-0.881 -0.178,-1.765 -0.247,-2.652 -0.027,-0.353 -0.052,-0.707 -0.074,-1.061 -0.052,-0.805 -0.09,-1.611 -0.117,-2.42 -0.027,-0.841 -0.06,-1.681 -0.06,-2.526 0.001,-25.15 20.462,-45.611 45.612,-45.611 z m -31.241,145.862 c 5.956,6.603 11.35,11.822 15.289,15.416 0.005,0.005 0.011,0.01 0.017,0.015 0.272,0.248 0.535,0.487 0.793,0.719 0.04,0.035 0.079,0.072 0.119,0.107 0.231,0.209 0.455,0.409 0.675,0.604 0.059,0.053 0.118,0.105 0.175,0.157 0.203,0.18 0.398,0.354 0.59,0.522 0.065,0.057 0.129,0.114 0.193,0.169 0.179,0.157 0.353,0.309 0.521,0.456 0.07,0.061 0.139,0.121 0.208,0.18 0.153,0.133 0.301,0.261 0.444,0.384 0.078,0.067 0.153,0.131 0.228,0.196 0.125,0.106 0.246,0.211 0.363,0.31 0.087,0.075 0.169,0.144 0.252,0.214 0.093,0.079 0.187,0.158 0.274,0.232 0.1,0.085 0.193,0.161 0.285,0.239 0.059,0.05 0.121,0.1 0.176,0.147 0.114,0.094 0.215,0.178 0.313,0.26 0.026,0.021 0.055,0.046 0.08,0.066 0.373,0.307 0.632,0.516 0.755,0.615 l 9.49,7.578 8.295,-6.624 1.194,-0.953 c 0.619,-0.495 4.421,-3.572 9.912,-8.817 9.677,21.861 15.528,45.34 17.277,69.296 h -84.35 v -0.002 c -1.12,-27.1 -5.172,-55.049 -11.661,-81.49 h 28.093 z M 347.793,87.721 c 0,0.013 0.002,0.024 0.003,0.036 0.095,0.88 0.203,1.756 0.318,2.63 0.013,0.098 0.024,0.197 0.038,0.294 0.115,0.848 0.239,1.691 0.372,2.532 0.019,0.121 0.038,0.241 0.057,0.362 0.134,0.829 0.277,1.655 0.427,2.477 0.023,0.127 0.046,0.253 0.07,0.38 0.153,0.82 0.315,1.637 0.485,2.453 0.025,0.123 0.051,0.245 0.077,0.368 0.173,0.821 0.356,1.638 0.545,2.453 0.025,0.107 0.051,0.215 0.076,0.322 0.197,0.831 0.401,1.66 0.613,2.484 0.02,0.078 0.041,0.156 0.062,0.235 0.222,0.853 0.451,1.701 0.689,2.547 0.01,0.036 0.021,0.073 0.031,0.108 3.987,14.063 10.252,27.02 17.308,38.457 h -13.903 c -3.548,-10.587 -7.497,-20.737 -11.82,-30.259 -6.917,-15.234 -14.554,-28.474 -22.759,-39.617 9.362,3.257 18.495,7.166 27.311,11.738 z M 267.025,67.938 c 17.218,7.945 34.305,28.931 48.52,60.239 2.571,5.663 4.995,11.578 7.271,17.685 h -55.791 z m 0,108.341 h 65.452 c 6.986,26.134 11.374,54.23 12.584,81.49 h -78.035 v -81.49 z m 0,111.905 h 78.035 c -1.211,27.26 -5.598,55.356 -12.584,81.491 h -65.452 v -81.491 z m 0,189.833 v -77.924 h 55.791 c -2.276,6.107 -4.699,12.022 -7.271,17.685 -14.214,31.308 -31.302,52.294 -48.52,60.239 z m 53.47,-8.064 c 8.201,-11.141 15.834,-24.374 22.747,-39.601 4.323,-9.522 8.272,-19.672 11.82,-30.259 h 62.036 c -24.517,31.801 -57.985,56.356 -96.603,69.86 z M 436.609,369.676 h -72.763 c 6.489,-26.442 10.541,-54.391 11.661,-81.491 h 84.357 c -2.116,29.232 -10.287,56.809 -23.255,81.491 z"
   id="path1779"
   style="fill:#f7f805;fill-opacity:0.922747" />
	</g>
</g><g
         id="g1789"
         style="fill:#f7f805;fill-opacity:0.922747">
	<g
   id="g1787"
   style="fill:#f7f805;fill-opacity:0.922747">
		<path
   d="m 423.178,38.348 c -20.777,0 -37.68,16.903 -37.68,37.68 0,20.777 16.903,37.68 37.68,37.68 20.777,0 37.68,-16.903 37.68,-37.68 0,-20.777 -16.903,-37.68 -37.68,-37.68 z m 0,44.942 c -4.005,0 -7.263,-3.258 -7.263,-7.263 0,-4.004 3.258,-7.263 7.263,-7.263 4.004,0 7.263,3.258 7.263,7.263 0,4.005 -3.258,7.263 -7.263,7.263 z"
   id="path1785"
   style="fill:#f7f805;fill-opacity:0.922747" />
	</g>
</g></g></g></svg>
