<?xml version="1.0" encoding="UTF-8" standalone="no"?>
<!DOCTYPE svg PUBLIC "-//W3C//DTD SVG 1.1//EN"
 "http://www.w3.org/Graphics/SVG/1.1/DTD/svg11.dtd">
<!-- Generated by graphviz version 7.0.0 (20221023.0053)
 -->
<!-- Title: G Pages: 1 -->
<svg width="876pt" height="699pt"
 viewBox="0.00 0.00 875.55 699.00" xmlns="http://www.w3.org/2000/svg" xmlns:xlink="http://www.w3.org/1999/xlink">
<g id="graph0" class="graph" transform="scale(1 1) rotate(0) translate(4 695)">
<title>G</title>
<polygon fill="white" stroke="none" points="-4,4 -4,-695 871.55,-695 871.55,4 -4,4"/>
<text text-anchor="middle" x="433.77" y="-22.8" font-family="Helvetica,Arial,sans-serif" font-size="14.00">Data sources and layers</text>
<text text-anchor="middle" x="433.77" y="-7.8" font-family="Helvetica,Arial,sans-serif" font-size="14.00">Overview</text>
<g id="clust1" class="cluster">
<title>cluster_0</title>
<polygon fill="lightgrey" stroke="lightgrey" points="357,-46 357,-483 447,-483 447,-46 357,-46"/>
<text text-anchor="middle" x="402" y="-53.8" font-family="Helvetica,Arial,sans-serif" font-size="14.00">WDPAID #1</text>
</g>
<!-- a0 -->
<g id="node1" class="node">
<title>a0</title>
<ellipse fill="white" stroke="white" cx="403" cy="-457" rx="27" ry="18"/>
<text text-anchor="middle" x="403" y="-453.3" font-family="Times,serif" font-size="14.00">a0</text>
</g>
<!-- a1 -->
<g id="node2" class="node">
<title>a1</title>
<ellipse fill="white" stroke="white" cx="392" cy="-384" rx="27" ry="18"/>
<text text-anchor="middle" x="392" y="-380.3" font-family="Times,serif" font-size="14.00">a1</text>
</g>
<!-- a0&#45;&gt;a1 -->
<g id="edge1" class="edge">
<title>a0&#45;&gt;a1</title>
<path fill="none" stroke="black" d="M400.34,-438.81C399.15,-431.14 397.72,-421.89 396.38,-413.24"/>
<polygon fill="black" stroke="black" points="399.86,-412.87 394.87,-403.52 392.94,-413.94 399.86,-412.87"/>
</g>
<!-- a2 -->
<g id="node3" class="node">
<title>a2</title>
<ellipse fill="white" stroke="white" cx="392" cy="-311" rx="27" ry="18"/>
<text text-anchor="middle" x="392" y="-307.3" font-family="Times,serif" font-size="14.00">a2</text>
</g>
<!-- a1&#45;&gt;a2 -->
<g id="edge2" class="edge">
<title>a1&#45;&gt;a2</title>
<path fill="none" stroke="black" d="M392,-365.81C392,-358.23 392,-349.1 392,-340.54"/>
<polygon fill="black" stroke="black" points="395.5,-340.54 392,-330.54 388.5,-340.54 395.5,-340.54"/>
</g>
<!-- a3 -->
<g id="node4" class="node">
<title>a3</title>
<ellipse fill="white" stroke="white" cx="412" cy="-239" rx="27" ry="18"/>
<text text-anchor="middle" x="412" y="-235.3" font-family="Times,serif" font-size="14.00">a3</text>
</g>
<!-- a2&#45;&gt;a3 -->
<g id="edge3" class="edge">
<title>a2&#45;&gt;a3</title>
<path fill="none" stroke="black" d="M396.84,-293.05C399,-285.49 401.61,-276.37 404.04,-267.85"/>
<polygon fill="black" stroke="black" points="407.41,-268.82 406.79,-258.24 400.67,-266.9 407.41,-268.82"/>
</g>
<!-- a4 -->
<g id="node5" class="node">
<title>a4</title>
<ellipse fill="white" stroke="white" cx="412" cy="-167" rx="27" ry="18"/>
<text text-anchor="middle" x="412" y="-163.3" font-family="Times,serif" font-size="14.00">a4</text>
</g>
<!-- a3&#45;&gt;a4 -->
<g id="edge4" class="edge">
<title>a3&#45;&gt;a4</title>
<path fill="none" stroke="black" d="M412,-220.7C412,-213.41 412,-204.73 412,-196.54"/>
<polygon fill="black" stroke="black" points="415.5,-196.62 412,-186.62 408.5,-196.62 415.5,-196.62"/>
</g>
<!-- a5 -->
<g id="node6" class="node">
<title>a5</title>
<ellipse fill="white" stroke="white" cx="392" cy="-95" rx="27" ry="18"/>
<text text-anchor="middle" x="392" y="-91.3" font-family="Times,serif" font-size="14.00">a5</text>
</g>
<!-- a4&#45;&gt;a5 -->
<g id="edge5" class="edge">
<title>a4&#45;&gt;a5</title>
<path fill="none" stroke="black" d="M407.16,-149.05C405,-141.49 402.39,-132.37 399.96,-123.85"/>
<polygon fill="black" stroke="black" points="403.33,-122.9 397.21,-114.24 396.59,-124.82 403.33,-122.9"/>
</g>
<!-- GFC -->
<g id="node7" class="node">
<title>GFC</title>
<ellipse fill="#d0e0a0" fill-opacity="0.533333" stroke="#d0e0a0" stroke-opacity="0.533333" cx="46" cy="-457" rx="27.9" ry="18"/>
<text text-anchor="middle" x="46" y="-453.3" font-family="Times,serif" font-size="14.00">GFC</text>
</g>
<!-- TCVR -->
<g id="node8" class="node">
<title>TCVR</title>
<polygon fill="#d0e0a0" fill-opacity="0.533333" stroke="#d0e0a0" stroke-opacity="0.533333" points="333,-402 235,-402 235,-366 333,-366 333,-402"/>
<text text-anchor="middle" x="284" y="-380.3" font-family="Times,serif" font-size="14.00">treecover 2000</text>
</g>
<!-- GFC&#45;&gt;TCVR -->
<g id="edge13" class="edge">
<title>GFC&#45;&gt;TCVR</title>
<path fill="none" stroke="black" d="M67.66,-445.31C72.63,-443.06 77.95,-440.82 83,-439 96.39,-434.16 169.51,-414.81 223.72,-400.65"/>
<polygon fill="black" stroke="black" points="224.37,-404.09 233.16,-398.18 222.6,-397.32 224.37,-404.09"/>
</g>
<!-- TCLS -->
<g id="node9" class="node">
<title>TCLS</title>
<polygon fill="#d0e0a0" fill-opacity="0.533333" stroke="#d0e0a0" stroke-opacity="0.533333" points="92,-403 0,-403 0,-365 92,-365 92,-403"/>
<text text-anchor="middle" x="46" y="-387.8" font-family="Times,serif" font-size="14.00">treecover loss</text>
<text text-anchor="middle" x="46" y="-372.8" font-family="Times,serif" font-size="14.00">(2001&#45;2021)</text>
</g>
<!-- GFC&#45;&gt;TCLS -->
<g id="edge14" class="edge">
<title>GFC&#45;&gt;TCLS</title>
<path fill="none" stroke="black" d="M46,-438.81C46,-431.59 46,-422.97 46,-414.77"/>
<polygon fill="black" stroke="black" points="49.5,-414.78 46,-404.78 42.5,-414.78 49.5,-414.78"/>
</g>
<!-- TCGN -->
<g id="node10" class="node">
<title>TCGN</title>
<polygon fill="#d0e0a0" fill-opacity="0.533333" stroke="#d0e0a0" stroke-opacity="0.533333" points="204,-402 110,-402 110,-366 204,-366 204,-402"/>
<text text-anchor="middle" x="157" y="-380.3" font-family="Times,serif" font-size="14.00">treecover gain</text>
</g>
<!-- GFC&#45;&gt;TCGN -->
<g id="edge15" class="edge">
<title>GFC&#45;&gt;TCGN</title>
<path fill="none" stroke="black" d="M65.33,-443.63C80.5,-433.93 102.04,-420.15 120.43,-408.39"/>
<polygon fill="black" stroke="black" points="122.18,-411.43 128.71,-403.09 118.4,-405.53 122.18,-411.43"/>
</g>
<!-- TCVR&#45;&gt;a2 -->
<g id="edge35" class="edge">
<title>TCVR&#45;&gt;a2</title>
<path fill="none" stroke="black" d="M310.42,-365.63C326.71,-354.92 347.57,-341.21 364.12,-330.33"/>
<polygon fill="black" stroke="black" points="365.6,-333.54 372.03,-325.13 361.76,-327.69 365.6,-333.54"/>
</g>
<!-- TCLS&#45;&gt;a2 -->
<g id="edge36" class="edge">
<title>TCLS&#45;&gt;a2</title>
<path fill="none" stroke="black" d="M92.38,-367.33C95.29,-366.5 98.18,-365.72 101,-365 190.92,-342.21 298.84,-325.19 354.58,-317.15"/>
<polygon fill="black" stroke="black" points="354.75,-320.66 364.16,-315.78 353.77,-313.73 354.75,-320.66"/>
</g>
<!-- FML -->
<g id="node11" class="node">
<title>FML</title>
<ellipse fill="#000000" fill-opacity="0.533333" stroke="#000000" stroke-opacity="0.533333" cx="605" cy="-673" rx="29.5" ry="18"/>
<text text-anchor="middle" x="605" y="-669.3" font-family="Times,serif" font-size="14.00">FML</text>
</g>
<!-- FMLrst -->
<g id="node12" class="node">
<title>FMLrst</title>
<polygon fill="#000000" fill-opacity="0.533333" stroke="#000000" stroke-opacity="0.533333" points="667.5,-619 542.5,-619 542.5,-583 667.5,-583 667.5,-619"/>
<text text-anchor="middle" x="605" y="-597.3" font-family="Times,serif" font-size="14.00">Forest management</text>
</g>
<!-- FML&#45;&gt;FMLrst -->
<g id="edge12" class="edge">
<title>FML&#45;&gt;FMLrst</title>
<path fill="none" stroke="black" d="M605,-654.7C605,-647.41 605,-638.73 605,-630.54"/>
<polygon fill="black" stroke="black" points="608.5,-630.62 605,-620.62 601.5,-630.62 608.5,-630.62"/>
</g>
<!-- RAISG -->
<g id="node13" class="node">
<title>RAISG</title>
<ellipse fill="#a0a00a" stroke="#a0a00a" cx="716" cy="-311" rx="37.09" ry="18"/>
<text text-anchor="middle" x="716" y="-307.3" font-family="Times,serif" font-size="14.00">RAISG</text>
</g>
<!-- MINILE -->
<g id="node14" class="node">
<title>MINILE</title>
<polygon fill="#a0a00a" stroke="#a0a00a" points="581.5,-257 480.5,-257 480.5,-221 581.5,-221 581.5,-257"/>
<text text-anchor="middle" x="531" y="-235.3" font-family="Times,serif" font-size="14.00">Mining activity</text>
</g>
<!-- RAISG&#45;&gt;MINILE -->
<g id="edge16" class="edge">
<title>RAISG&#45;&gt;MINILE</title>
<path fill="none" stroke="black" d="M687.5,-299.22C660.98,-289.18 620.68,-273.93 587.63,-261.43"/>
<polygon fill="black" stroke="black" points="589.18,-258.27 578.59,-258.01 586.7,-264.82 589.18,-258.27"/>
</g>
<!-- MINLEG -->
<g id="node15" class="node">
<title>MINLEG</title>
<polygon fill="#a0a00a" stroke="#a0a00a" points="738,-257 646,-257 646,-221 738,-221 738,-257"/>
<text text-anchor="middle" x="692" y="-235.3" font-family="Times,serif" font-size="14.00">Mining zones</text>
</g>
<!-- RAISG&#45;&gt;MINLEG -->
<g id="edge17" class="edge">
<title>RAISG&#45;&gt;MINLEG</title>
<path fill="none" stroke="black" d="M710.19,-293.05C707.61,-285.52 704.49,-276.44 701.58,-267.94"/>
<polygon fill="black" stroke="black" points="704.97,-267.03 698.41,-258.71 698.35,-269.3 704.97,-267.03"/>
</g>
<!-- MINILE&#45;&gt;a4 -->
<g id="edge37" class="edge">
<title>MINILE&#45;&gt;a4</title>
<path fill="none" stroke="black" d="M501.28,-220.52C483.01,-209.77 459.69,-196.05 441.47,-185.33"/>
<polygon fill="black" stroke="black" points="443.37,-182.39 432.97,-180.34 439.82,-188.42 443.37,-182.39"/>
</g>
<!-- MINLEG&#45;&gt;a4 -->
<g id="edge38" class="edge">
<title>MINLEG&#45;&gt;a4</title>
<path fill="none" stroke="black" d="M645.76,-226.44C590.28,-212.57 498.45,-189.61 447.98,-176.99"/>
<polygon fill="black" stroke="black" points="448.99,-173.64 438.44,-174.61 447.3,-180.43 448.99,-173.64"/>
</g>
<!-- TERRA -->
<g id="node16" class="node">
<title>TERRA</title>
<ellipse fill="#a00ff0" fill-opacity="0.666667" stroke="#a00ff0" stroke-opacity="0.666667" cx="213" cy="-673" rx="57.69" ry="18"/>
<text text-anchor="middle" x="213" y="-669.3" font-family="Times,serif" font-size="14.00">TerraClimate</text>
</g>
<!-- SUMMARY -->
<g id="node25" class="node">
<title>SUMMARY</title>
<ellipse fill="none" stroke="black" cx="150" cy="-601" rx="57.39" ry="18"/>
<text text-anchor="middle" x="150" y="-597.3" font-family="Times,serif" font-size="14.00">SUMMARY</text>
</g>
<!-- TERRA&#45;&gt;SUMMARY -->
<g id="edge6" class="edge">
<title>TERRA&#45;&gt;SUMMARY</title>
<path fill="none" stroke="black" d="M198.07,-655.41C190.38,-646.87 180.85,-636.28 172.31,-626.79"/>
<polygon fill="black" stroke="black" points="175.13,-624.69 165.84,-619.59 169.92,-629.37 175.13,-624.69"/>
</g>
<!-- PERYEAR -->
<g id="node26" class="node">
<title>PERYEAR</title>
<ellipse fill="none" stroke="black" cx="276" cy="-601" rx="50.89" ry="18"/>
<text text-anchor="middle" x="276" y="-597.3" font-family="Times,serif" font-size="14.00">PERYEAR</text>
</g>
<!-- TERRA&#45;&gt;PERYEAR -->
<g id="edge9" class="edge">
<title>TERRA&#45;&gt;PERYEAR</title>
<path fill="none" stroke="black" d="M227.93,-655.41C235.62,-646.87 245.15,-636.28 253.69,-626.79"/>
<polygon fill="black" stroke="black" points="256.08,-629.37 260.16,-619.59 250.87,-624.69 256.08,-629.37"/>
</g>
<!-- PET -->
<g id="node17" class="node">
<title>PET</title>
<polygon fill="#a00ff0" fill-opacity="0.666667" stroke="#a00ff0" stroke-opacity="0.666667" points="146,-475 92,-475 92,-439 146,-439 146,-475"/>
<text text-anchor="middle" x="119" y="-453.3" font-family="Times,serif" font-size="14.00">PET</text>
</g>
<!-- PET&#45;&gt;a1 -->
<g id="edge29" class="edge">
<title>PET&#45;&gt;a1</title>
<path fill="none" stroke="black" d="M146.07,-443.89C150.67,-442.1 155.43,-440.39 160,-439 238.91,-415.09 262.54,-425.03 342,-403 347.33,-401.52 352.91,-399.75 358.32,-397.9"/>
<polygon fill="black" stroke="black" points="359.41,-401.23 367.66,-394.58 357.06,-394.63 359.41,-401.23"/>
</g>
<!-- PPT -->
<g id="node18" class="node">
<title>PPT</title>
<polygon fill="#a00ff0" fill-opacity="0.666667" stroke="#a00ff0" stroke-opacity="0.666667" points="201,-547 147,-547 147,-511 201,-511 201,-547"/>
<text text-anchor="middle" x="174" y="-525.3" font-family="Times,serif" font-size="14.00">PPT</text>
</g>
<!-- PPT&#45;&gt;a1 -->
<g id="edge30" class="edge">
<title>PPT&#45;&gt;a1</title>
<path fill="none" stroke="black" d="M172.64,-510.78C172.06,-490.79 174.37,-458.13 193,-439 240.53,-390.19 276.74,-422.57 342,-403 347.3,-401.41 352.86,-399.58 358.27,-397.7"/>
<polygon fill="black" stroke="black" points="359.36,-401.03 367.6,-394.37 357,-394.44 359.36,-401.03"/>
</g>
<!-- PPTA -->
<g id="node35" class="node">
<title>PPTA</title>
<ellipse fill="none" stroke="black" cx="234" cy="-457" rx="32.49" ry="18"/>
<text text-anchor="middle" x="234" y="-453.3" font-family="Times,serif" font-size="14.00">PPTA</text>
</g>
<!-- PPT&#45;&gt;PPTA -->
<g id="edge31" class="edge">
<title>PPT&#45;&gt;PPTA</title>
<path fill="none" stroke="black" d="M188.83,-510.7C196.19,-502.11 205.21,-491.58 213.25,-482.21"/>
<polygon fill="black" stroke="black" points="215.73,-484.69 219.58,-474.82 210.42,-480.14 215.73,-484.69"/>
</g>
<!-- WDPA -->
<g id="node19" class="node">
<title>WDPA</title>
<ellipse fill="#a0f00a" stroke="#a0f00a" cx="487" cy="-601" rx="37.09" ry="18"/>
<text text-anchor="middle" x="487" y="-597.3" font-family="Times,serif" font-size="14.00">WDPA</text>
</g>
<!-- PN -->
<g id="node20" class="node">
<title>PN</title>
<polygon fill="#a0f00a" stroke="#a0f00a" points="466,-547 392,-547 392,-511 466,-511 466,-547"/>
<text text-anchor="middle" x="429" y="-525.3" font-family="Times,serif" font-size="14.00">NP (cat II)</text>
</g>
<!-- WDPA&#45;&gt;PN -->
<g id="edge18" class="edge">
<title>WDPA&#45;&gt;PN</title>
<path fill="none" stroke="black" d="M473.55,-583.76C466.65,-575.44 458.09,-565.1 450.32,-555.73"/>
<polygon fill="black" stroke="black" points="453.23,-553.76 444.15,-548.29 447.84,-558.22 453.23,-553.76"/>
</g>
<!-- ABRAE -->
<g id="node21" class="node">
<title>ABRAE</title>
<polygon fill="#a0f00a" stroke="#a0f00a" points="606,-547 484,-547 484,-511 606,-511 606,-547"/>
<text text-anchor="middle" x="545" y="-525.3" font-family="Times,serif" font-size="14.00">ABRAE (cat III&#45;V)</text>
</g>
<!-- WDPA&#45;&gt;ABRAE -->
<g id="edge19" class="edge">
<title>WDPA&#45;&gt;ABRAE</title>
<path fill="none" stroke="black" d="M500.45,-583.76C507.35,-575.44 515.91,-565.1 523.68,-555.73"/>
<polygon fill="black" stroke="black" points="526.16,-558.22 529.85,-548.29 520.77,-553.76 526.16,-558.22"/>
</g>
<!-- PN&#45;&gt;a0 -->
<g id="edge28" class="edge">
<title>PN&#45;&gt;a0</title>
<path fill="none" stroke="black" d="M422.57,-510.7C419.73,-503.04 416.32,-493.85 413.14,-485.3"/>
<polygon fill="black" stroke="black" points="416.46,-484.2 409.7,-476.04 409.9,-486.63 416.46,-484.2"/>
</g>
<!-- MODIS -->
<g id="node22" class="node">
<title>MODIS</title>
<ellipse fill="#a0f00a" stroke="#a0f00a" cx="261" cy="-239" rx="39.79" ry="18"/>
<text text-anchor="middle" x="261" y="-235.3" font-family="Times,serif" font-size="14.00">MODIS</text>
</g>
<!-- FIRES -->
<g id="node23" class="node">
<title>FIRES</title>
<polygon fill="#a0f00a" stroke="#a0f00a" points="349,-185 269,-185 269,-149 349,-149 349,-185"/>
<text text-anchor="middle" x="309" y="-163.3" font-family="Times,serif" font-size="14.00">Active fires</text>
</g>
<!-- MODIS&#45;&gt;FIRES -->
<g id="edge22" class="edge">
<title>MODIS&#45;&gt;FIRES</title>
<path fill="none" stroke="black" d="M272.38,-221.41C277.83,-213.45 284.5,-203.72 290.65,-194.76"/>
<polygon fill="black" stroke="black" points="293.41,-196.92 296.18,-186.7 287.64,-192.96 293.41,-196.92"/>
</g>
<!-- BURNT -->
<g id="node24" class="node">
<title>BURNT</title>
<polygon fill="#a0f00a" stroke="#a0f00a" points="251,-185 177,-185 177,-149 251,-149 251,-185"/>
<text text-anchor="middle" x="214" y="-163.3" font-family="Times,serif" font-size="14.00">Burnt area</text>
</g>
<!-- MODIS&#45;&gt;BURNT -->
<g id="edge23" class="edge">
<title>MODIS&#45;&gt;BURNT</title>
<path fill="none" stroke="black" d="M249.86,-221.41C244.52,-213.45 237.98,-203.72 231.96,-194.76"/>
<polygon fill="black" stroke="black" points="235.04,-193.05 226.56,-186.7 229.23,-196.96 235.04,-193.05"/>
</g>
<!-- FIRES&#45;&gt;a5 -->
<g id="edge24" class="edge">
<title>FIRES&#45;&gt;a5</title>
<path fill="none" stroke="black" d="M329.52,-148.7C340.84,-139.15 354.99,-127.21 366.96,-117.12"/>
<polygon fill="black" stroke="black" points="369.06,-119.92 374.45,-110.8 364.55,-114.57 369.06,-119.92"/>
</g>
<!-- BURNT&#45;&gt;a5 -->
<g id="edge25" class="edge">
<title>BURNT&#45;&gt;a5</title>
<path fill="none" stroke="black" d="M251.31,-151.33C283,-138.86 328.07,-121.14 358.59,-109.14"/>
<polygon fill="black" stroke="black" points="359.69,-112.47 367.71,-105.55 357.12,-105.95 359.69,-112.47"/>
</g>
<!-- SUMMARY&#45;&gt;PET -->
<g id="edge7" class="edge">
<title>SUMMARY&#45;&gt;PET</title>
<path fill="none" stroke="black" d="M146.06,-582.83C143.69,-572.46 140.63,-558.98 138,-547 133.56,-526.81 128.7,-504.02 125,-486.55"/>
<polygon fill="black" stroke="black" points="128.45,-485.95 122.96,-476.89 121.6,-487.4 128.45,-485.95"/>
</g>
<!-- SUMMARY&#45;&gt;PPT -->
<g id="edge8" class="edge">
<title>SUMMARY&#45;&gt;PPT</title>
<path fill="none" stroke="black" d="M155.93,-582.7C158.49,-575.24 161.55,-566.32 164.41,-557.97"/>
<polygon fill="black" stroke="black" points="167.71,-559.13 167.64,-548.54 161.09,-556.86 167.71,-559.13"/>
</g>
<!-- PETM -->
<g id="node27" class="node">
<title>PETM</title>
<ellipse fill="none" stroke="black" cx="253" cy="-529" rx="34.39" ry="18"/>
<text text-anchor="middle" x="253" y="-525.3" font-family="Times,serif" font-size="14.00">PETM</text>
</g>
<!-- PERYEAR&#45;&gt;PETM -->
<g id="edge10" class="edge">
<title>PERYEAR&#45;&gt;PETM</title>
<path fill="none" stroke="black" d="M270.31,-582.7C267.86,-575.24 264.93,-566.32 262.19,-557.97"/>
<polygon fill="black" stroke="black" points="265.54,-556.95 259.09,-548.54 258.89,-559.14 265.54,-556.95"/>
</g>
<!-- PPTM -->
<g id="node28" class="node">
<title>PPTM</title>
<ellipse fill="none" stroke="black" cx="340" cy="-529" rx="34.39" ry="18"/>
<text text-anchor="middle" x="340" y="-525.3" font-family="Times,serif" font-size="14.00">PPTM</text>
</g>
<!-- PERYEAR&#45;&gt;PPTM -->
<g id="edge11" class="edge">
<title>PERYEAR&#45;&gt;PPTM</title>
<path fill="none" stroke="black" d="M291.17,-583.41C299.2,-574.62 309.22,-563.66 318.09,-553.96"/>
<polygon fill="black" stroke="black" points="320.63,-556.37 324.8,-546.63 315.47,-551.65 320.63,-556.37"/>
</g>
<!-- PPTM&#45;&gt;PPTA -->
<g id="edge32" class="edge">
<title>PPTM&#45;&gt;PPTA</title>
<path fill="none" stroke="black" d="M319.31,-514.34C303.45,-503.86 281.35,-489.27 263.61,-477.56"/>
<polygon fill="black" stroke="black" points="265.81,-474.81 255.54,-472.22 261.96,-480.66 265.81,-474.81"/>
</g>
<!-- GLCLUC -->
<g id="node29" class="node">
<title>GLCLUC</title>
<ellipse fill="none" stroke="black" cx="552" cy="-384" rx="46.29" ry="18"/>
<text text-anchor="middle" x="552" y="-380.3" font-family="Times,serif" font-size="14.00">GLCLUC</text>
</g>
<!-- CROPAREA -->
<g id="node30" class="node">
<title>CROPAREA</title>
<ellipse fill="none" stroke="black" cx="603" cy="-311" rx="57.69" ry="18"/>
<text text-anchor="middle" x="603" y="-307.3" font-family="Times,serif" font-size="14.00">CROPAREA</text>
</g>
<!-- GLCLUC&#45;&gt;CROPAREA -->
<g id="edge20" class="edge">
<title>GLCLUC&#45;&gt;CROPAREA</title>
<path fill="none" stroke="black" d="M564.09,-366.17C570.12,-357.77 577.55,-347.42 584.3,-338.03"/>
<polygon fill="black" stroke="black" points="587.13,-340.1 590.12,-329.93 581.44,-336.01 587.13,-340.1"/>
</g>
<!-- BUILT -->
<g id="node31" class="node">
<title>BUILT</title>
<ellipse fill="none" stroke="black" cx="491" cy="-311" rx="36.29" ry="18"/>
<text text-anchor="middle" x="491" y="-307.3" font-family="Times,serif" font-size="14.00">BUILT</text>
</g>
<!-- GLCLUC&#45;&gt;BUILT -->
<g id="edge21" class="edge">
<title>GLCLUC&#45;&gt;BUILT</title>
<path fill="none" stroke="black" d="M537.85,-366.53C530.2,-357.63 520.6,-346.45 512.08,-336.54"/>
<polygon fill="black" stroke="black" points="514.81,-334.34 505.64,-329.04 509.5,-338.9 514.81,-334.34"/>
</g>
<!-- BUILT&#45;&gt;a3 -->
<g id="edge39" class="edge">
<title>BUILT&#45;&gt;a3</title>
<path fill="none" stroke="black" d="M473.86,-294.81C462.83,-285.04 448.34,-272.2 436.15,-261.4"/>
<polygon fill="black" stroke="black" points="438.7,-258.99 428.9,-254.97 434.06,-264.23 438.7,-258.99"/>
</g>
<!-- SIGMAT -->
<g id="node32" class="node">
<title>SIGMAT</title>
<ellipse fill="none" stroke="black" cx="774" cy="-673" rx="44.39" ry="18"/>
<text text-anchor="middle" x="774" y="-669.3" font-family="Times,serif" font-size="14.00">SIGMAT</text>
</g>
<!-- CROPS -->
<g id="node33" class="node">
<title>CROPS</title>
<ellipse fill="none" stroke="black" cx="724" cy="-601" rx="38.19" ry="18"/>
<text text-anchor="middle" x="724" y="-597.3" font-family="Times,serif" font-size="14.00">CROPS</text>
</g>
<!-- SIGMAT&#45;&gt;CROPS -->
<g id="edge26" class="edge">
<title>SIGMAT&#45;&gt;CROPS</title>
<path fill="none" stroke="black" d="M762.15,-655.41C756.24,-647.13 748.95,-636.92 742.33,-627.66"/>
<polygon fill="black" stroke="black" points="745.3,-625.8 736.64,-619.7 739.61,-629.87 745.3,-625.8"/>
</g>
<!-- CATTLE -->
<g id="node34" class="node">
<title>CATTLE</title>
<ellipse fill="none" stroke="black" cx="824" cy="-601" rx="43.59" ry="18"/>
<text text-anchor="middle" x="824" y="-597.3" font-family="Times,serif" font-size="14.00">CATTLE</text>
</g>
<!-- SIGMAT&#45;&gt;CATTLE -->
<g id="edge27" class="edge">
<title>SIGMAT&#45;&gt;CATTLE</title>
<path fill="none" stroke="black" d="M785.85,-655.41C791.76,-647.13 799.05,-636.92 805.67,-627.66"/>
<polygon fill="black" stroke="black" points="808.39,-629.87 811.36,-619.7 802.7,-625.8 808.39,-629.87"/>
</g>
<!-- PPTA&#45;&gt;a1 -->
<g id="edge33" class="edge">
<title>PPTA&#45;&gt;a1</title>
<path fill="none" stroke="black" d="M258.69,-444.91C285.9,-432.68 329.77,-412.97 359.69,-399.52"/>
<polygon fill="black" stroke="black" points="360.96,-402.78 368.65,-395.49 358.09,-396.4 360.96,-402.78"/>
</g>
<!-- PETA -->
<g id="node36" class="node">
<title>PETA</title>
<ellipse fill="none" stroke="black" cx="317" cy="-457" rx="32.49" ry="18"/>
<text text-anchor="middle" x="317" y="-453.3" font-family="Times,serif" font-size="14.00">PETA</text>
</g>
<!-- PETA&#45;&gt;a1 -->
<g id="edge34" class="edge">
<title>PETA&#45;&gt;a1</title>
<path fill="none" stroke="black" d="M332.91,-440.94C343.36,-431.05 357.2,-417.95 368.86,-406.91"/>
<polygon fill="black" stroke="black" points="370.93,-409.77 375.79,-400.35 366.12,-404.68 370.93,-409.77"/>
</g>
</g>
</svg>
